<?xml version="1.0" encoding="UTF-8" standalone="no"?>
<!DOCTYPE svg PUBLIC "-//W3C//DTD SVG 1.1//EN"
 "http://www.w3.org/Graphics/SVG/1.1/DTD/svg11.dtd">
<!-- Generated by graphviz version 2.40.1 (20161225.0304)
 -->
<!-- Title: %3 Pages: 1 -->
<svg width="156pt" height="116pt"
 viewBox="0.00 0.00 155.92 116.00" xmlns="http://www.w3.org/2000/svg" xmlns:xlink="http://www.w3.org/1999/xlink">
<g id="graph0" class="graph" transform="scale(1 1) rotate(0) translate(4 112)">
<title>%3</title>
<polygon fill="#ffffff" stroke="transparent" points="-4,4 -4,-112 151.9232,-112 151.9232,4 -4,4"/>
<!-- net_worth -->
<g id="node1" class="node">
<title>net_worth</title>
<ellipse fill="none" stroke="#000000" cx="73.7121" cy="-90" rx="45.9286" ry="18"/>
<text text-anchor="middle" x="73.7121" y="-85.8" font-family="Times,serif" font-size="14.00" fill="#000000">net_worth</text>
</g>
<!-- profits -->
<g id="node2" class="node">
<title>profits</title>
<ellipse fill="none" stroke="#000000" cx="32.7121" cy="-18" rx="32.9255" ry="18"/>
<text text-anchor="middle" x="32.7121" y="-13.8" font-family="Times,serif" font-size="14.00" fill="#000000">profits</text>
</g>
<!-- net_worth&#45;&gt;profits -->
<g id="edge1" class="edge">
<title>net_worth&#45;&gt;profits</title>
<path fill="none" stroke="#000000" d="M63.5772,-72.2022C58.7753,-63.7695 52.9436,-53.5285 47.6479,-44.2288"/>
<polygon fill="#000000" stroke="#000000" points="50.5787,-42.3025 42.5888,-35.3446 44.4958,-45.7664 50.5787,-42.3025"/>
</g>
<!-- online -->
<g id="node3" class="node">
<title>online</title>
<ellipse fill="none" stroke="#000000" cx="115.7121" cy="-18" rx="32.4237" ry="18"/>
<text text-anchor="middle" x="115.7121" y="-13.8" font-family="Times,serif" font-size="14.00" fill="#000000">online</text>
</g>
<!-- net_worth&#45;&gt;online -->
<g id="edge2" class="edge">
<title>net_worth&#45;&gt;online</title>
<path fill="none" stroke="#000000" d="M84.0941,-72.2022C89.0132,-63.7695 94.9871,-53.5285 100.4119,-44.2288"/>
<polygon fill="#000000" stroke="#000000" points="103.5789,-45.746 105.5944,-35.3446 97.5324,-42.2188 103.5789,-45.746"/>
</g>
</g>
</svg>
