<?xml version="1.0" encoding="UTF-8" standalone="no"?>
<!DOCTYPE svg PUBLIC "-//W3C//DTD SVG 1.1//EN"
 "http://www.w3.org/Graphics/SVG/1.1/DTD/svg11.dtd">
<!-- Generated by graphviz version 2.40.1 (20161225.0304)
 -->
<!-- Title: %3 Pages: 1 -->
<svg width="329pt" height="260pt"
 viewBox="0.00 0.00 329.36 260.00" xmlns="http://www.w3.org/2000/svg" xmlns:xlink="http://www.w3.org/1999/xlink">
<g id="graph0" class="graph" transform="scale(1 1) rotate(0) translate(4 256)">
<title>%3</title>
<polygon fill="#ffffff" stroke="transparent" points="-4,4 -4,-256 325.3572,-256 325.3572,4 -4,4"/>
<!-- subjects -->
<g id="node1" class="node">
<title>subjects</title>
<ellipse fill="none" stroke="#000000" cx="190.1561" cy="-234" rx="38.6955" ry="18"/>
<text text-anchor="middle" x="190.1561" y="-229.8" font-family="Times,serif" font-size="14.00" fill="#000000">subjects</text>
</g>
<!-- access_request -->
<g id="node2" class="node">
<title>access_request</title>
<ellipse fill="none" stroke="#000000" cx="120.1561" cy="-162" rx="62.7992" ry="18"/>
<text text-anchor="middle" x="120.1561" y="-157.8" font-family="Times,serif" font-size="14.00" fill="#000000">access_request</text>
</g>
<!-- subjects&#45;&gt;access_request -->
<g id="edge1" class="edge">
<title>subjects&#45;&gt;access_request</title>
<path fill="none" stroke="#000000" d="M173.9208,-217.3008C165.1666,-208.2965 154.1889,-197.0052 144.4392,-186.9769"/>
<polygon fill="#000000" stroke="#000000" points="146.7603,-184.3434 137.28,-179.6132 141.7414,-189.2229 146.7603,-184.3434"/>
</g>
<!-- authentication -->
<g id="node6" class="node">
<title>authentication</title>
<ellipse fill="none" stroke="#000000" cx="261.1561" cy="-162" rx="60.4028" ry="18"/>
<text text-anchor="middle" x="261.1561" y="-157.8" font-family="Times,serif" font-size="14.00" fill="#000000">authentication</text>
</g>
<!-- subjects&#45;&gt;authentication -->
<g id="edge6" class="edge">
<title>subjects&#45;&gt;authentication</title>
<path fill="none" stroke="#000000" d="M206.6234,-217.3008C215.5026,-208.2965 226.6371,-197.0052 236.5261,-186.9769"/>
<polygon fill="#000000" stroke="#000000" points="239.2582,-189.1911 243.7876,-179.6132 234.2739,-184.276 239.2582,-189.1911"/>
</g>
<!-- monitor -->
<g id="node3" class="node">
<title>monitor</title>
<ellipse fill="none" stroke="#000000" cx="120.1561" cy="-90" rx="38.2197" ry="18"/>
<text text-anchor="middle" x="120.1561" y="-85.8" font-family="Times,serif" font-size="14.00" fill="#000000">monitor</text>
</g>
<!-- access_request&#45;&gt;monitor -->
<g id="edge2" class="edge">
<title>access_request&#45;&gt;monitor</title>
<path fill="none" stroke="#000000" d="M120.1561,-143.8314C120.1561,-136.131 120.1561,-126.9743 120.1561,-118.4166"/>
<polygon fill="#000000" stroke="#000000" points="123.6562,-118.4132 120.1561,-108.4133 116.6562,-118.4133 123.6562,-118.4132"/>
</g>
<!-- objects -->
<g id="node4" class="node">
<title>objects</title>
<ellipse fill="none" stroke="#000000" cx="35.1561" cy="-18" rx="35.3129" ry="18"/>
<text text-anchor="middle" x="35.1561" y="-13.8" font-family="Times,serif" font-size="14.00" fill="#000000">objects</text>
</g>
<!-- monitor&#45;&gt;objects -->
<g id="edge3" class="edge">
<title>monitor&#45;&gt;objects</title>
<path fill="none" stroke="#000000" d="M101.2919,-74.0209C89.4649,-64.0028 74.0574,-50.9517 61.0895,-39.9671"/>
<polygon fill="#000000" stroke="#000000" points="63.2769,-37.2331 53.3842,-33.4403 58.7525,-42.5744 63.2769,-37.2331"/>
</g>
<!-- policy -->
<g id="node5" class="node">
<title>policy</title>
<ellipse fill="none" stroke="#000000" cx="120.1561" cy="-18" rx="32.4237" ry="18"/>
<text text-anchor="middle" x="120.1561" y="-13.8" font-family="Times,serif" font-size="14.00" fill="#000000">policy</text>
</g>
<!-- monitor&#45;&gt;policy -->
<g id="edge4" class="edge">
<title>monitor&#45;&gt;policy</title>
<path fill="none" stroke="#000000" d="M114.2404,-72.2022C113.4506,-64.3271 113.2216,-54.875 113.5532,-46.0852"/>
<polygon fill="#000000" stroke="#000000" points="117.0631,-46.0532 114.2359,-35.8425 110.0786,-45.5876 117.0631,-46.0532"/>
</g>
<!-- policy&#45;&gt;monitor -->
<g id="edge5" class="edge">
<title>policy&#45;&gt;monitor</title>
<path fill="none" stroke="#000000" d="M126.0763,-35.8425C126.864,-43.7236 127.0909,-53.1774 126.7571,-61.9647"/>
<polygon fill="#000000" stroke="#000000" points="123.2476,-61.9908 126.0718,-72.2022 130.232,-62.4583 123.2476,-61.9908"/>
</g>
</g>
</svg>
