<?xml version="1.0" encoding="UTF-8" standalone="no"?>
<!DOCTYPE svg PUBLIC "-//W3C//DTD SVG 1.1//EN"
 "http://www.w3.org/Graphics/SVG/1.1/DTD/svg11.dtd">
<!-- Generated by graphviz version 2.40.1 (20161225.0304)
 -->
<!-- Title: %3 Pages: 1 -->
<svg width="226pt" height="188pt"
 viewBox="0.00 0.00 225.71 188.00" xmlns="http://www.w3.org/2000/svg" xmlns:xlink="http://www.w3.org/1999/xlink">
<g id="graph0" class="graph" transform="scale(1 1) rotate(0) translate(4 184)">
<title>%3</title>
<polygon fill="#ffffff" stroke="transparent" points="-4,4 -4,-184 221.7073,-184 221.7073,4 -4,4"/>
<!-- useful_services -->
<g id="node1" class="node">
<title>useful_services</title>
<ellipse fill="none" stroke="#000000" cx="142.7513" cy="-162" rx="64.7459" ry="18"/>
<text text-anchor="middle" x="142.7513" y="-157.8" font-family="Times,serif" font-size="14.00" fill="#000000">useful_services</text>
</g>
<!-- business_intelligence -->
<g id="node2" class="node">
<title>business_intelligence</title>
<ellipse fill="none" stroke="#000000" cx="85.7513" cy="-90" rx="85.5033" ry="18"/>
<text text-anchor="middle" x="85.7513" y="-85.8" font-family="Times,serif" font-size="14.00" fill="#000000">business_intelligence</text>
</g>
<!-- useful_services&#45;&gt;business_intelligence -->
<g id="edge1" class="edge">
<title>useful_services&#45;&gt;business_intelligence</title>
<path fill="none" stroke="#000000" d="M128.6614,-144.2022C121.8788,-135.6348 113.6187,-125.2009 106.1635,-115.7839"/>
<polygon fill="#000000" stroke="#000000" points="108.8279,-113.5106 99.8766,-107.8425 103.3395,-117.8555 108.8279,-113.5106"/>
</g>
<!-- insights_to_action -->
<g id="node3" class="node">
<title>insights_to_action</title>
<ellipse fill="none" stroke="#000000" cx="142.7513" cy="-18" rx="74.9121" ry="18"/>
<text text-anchor="middle" x="142.7513" y="-13.8" font-family="Times,serif" font-size="14.00" fill="#000000">insights_to_action</text>
</g>
<!-- business_intelligence&#45;&gt;insights_to_action -->
<g id="edge2" class="edge">
<title>business_intelligence&#45;&gt;insights_to_action</title>
<path fill="none" stroke="#000000" d="M99.8412,-72.2022C106.6237,-63.6348 114.8839,-53.2009 122.339,-43.7839"/>
<polygon fill="#000000" stroke="#000000" points="125.163,-45.8555 128.6259,-35.8425 119.6747,-41.5106 125.163,-45.8555"/>
</g>
<!-- insights_to_action&#45;&gt;useful_services -->
<g id="edge3" class="edge">
<title>insights_to_action&#45;&gt;useful_services</title>
<path fill="none" stroke="#000000" d="M159.6166,-35.9376C167.702,-45.7776 176.5301,-58.6666 180.7513,-72 185.5804,-87.2538 185.5804,-92.7462 180.7513,-108 177.5335,-118.164 171.6387,-128.0697 165.4365,-136.5635"/>
<polygon fill="#000000" stroke="#000000" points="162.604,-134.5042 159.2196,-144.5439 168.1262,-138.806 162.604,-134.5042"/>
</g>
</g>
</svg>
