<?xml version="1.0" encoding="UTF-8" standalone="no"?>
<!DOCTYPE svg PUBLIC "-//W3C//DTD SVG 1.1//EN"
 "http://www.w3.org/Graphics/SVG/1.1/DTD/svg11.dtd">
<!-- Generated by graphviz version 2.40.1 (20161225.0304)
 -->
<!-- Title: %3 Pages: 1 -->
<svg width="87pt" height="332pt"
 viewBox="0.00 0.00 87.16 332.00" xmlns="http://www.w3.org/2000/svg" xmlns:xlink="http://www.w3.org/1999/xlink">
<g id="graph0" class="graph" transform="scale(1 1) rotate(0) translate(4 328)">
<title>%3</title>
<polygon fill="#ffffff" stroke="transparent" points="-4,4 -4,-328 83.1557,-328 83.1557,4 -4,4"/>
<!-- x -->
<g id="node1" class="node">
<title>x</title>
<ellipse fill="none" stroke="#000000" cx="39.5778" cy="-306" rx="27" ry="18"/>
<text text-anchor="middle" x="39.5778" y="-301.8" font-family="Times,serif" font-size="14.00" fill="#000000">x</text>
</g>
<!-- encoder -->
<g id="node2" class="node">
<title>encoder</title>
<ellipse fill="none" stroke="#000000" cx="39.5778" cy="-234" rx="38.1851" ry="18"/>
<text text-anchor="middle" x="39.5778" y="-229.8" font-family="Times,serif" font-size="14.00" fill="#000000">encoder</text>
</g>
<!-- x&#45;&gt;encoder -->
<g id="edge1" class="edge">
<title>x&#45;&gt;encoder</title>
<path fill="none" stroke="#000000" d="M39.5778,-287.8314C39.5778,-280.131 39.5778,-270.9743 39.5778,-262.4166"/>
<polygon fill="#000000" stroke="#000000" points="43.0779,-262.4132 39.5778,-252.4133 36.0779,-262.4133 43.0779,-262.4132"/>
</g>
<!-- code -->
<g id="node3" class="node">
<title>code</title>
<ellipse fill="none" stroke="#000000" cx="39.5778" cy="-162" rx="27" ry="18"/>
<text text-anchor="middle" x="39.5778" y="-157.8" font-family="Times,serif" font-size="14.00" fill="#000000">code</text>
</g>
<!-- encoder&#45;&gt;code -->
<g id="edge2" class="edge">
<title>encoder&#45;&gt;code</title>
<path fill="none" stroke="#000000" d="M39.5778,-215.8314C39.5778,-208.131 39.5778,-198.9743 39.5778,-190.4166"/>
<polygon fill="#000000" stroke="#000000" points="43.0779,-190.4132 39.5778,-180.4133 36.0779,-190.4133 43.0779,-190.4132"/>
</g>
<!-- decoder -->
<g id="node4" class="node">
<title>decoder</title>
<ellipse fill="none" stroke="#000000" cx="39.5778" cy="-90" rx="38.1851" ry="18"/>
<text text-anchor="middle" x="39.5778" y="-85.8" font-family="Times,serif" font-size="14.00" fill="#000000">decoder</text>
</g>
<!-- code&#45;&gt;decoder -->
<g id="edge3" class="edge">
<title>code&#45;&gt;decoder</title>
<path fill="none" stroke="#000000" d="M39.5778,-143.8314C39.5778,-136.131 39.5778,-126.9743 39.5778,-118.4166"/>
<polygon fill="#000000" stroke="#000000" points="43.0779,-118.4132 39.5778,-108.4133 36.0779,-118.4133 43.0779,-118.4132"/>
</g>
<!-- x_prime -->
<g id="node5" class="node">
<title>x_prime</title>
<ellipse fill="none" stroke="#000000" cx="39.5778" cy="-18" rx="39.6558" ry="18"/>
<text text-anchor="middle" x="39.5778" y="-13.8" font-family="Times,serif" font-size="14.00" fill="#000000">x_prime</text>
</g>
<!-- decoder&#45;&gt;x_prime -->
<g id="edge4" class="edge">
<title>decoder&#45;&gt;x_prime</title>
<path fill="none" stroke="#000000" d="M39.5778,-71.8314C39.5778,-64.131 39.5778,-54.9743 39.5778,-46.4166"/>
<polygon fill="#000000" stroke="#000000" points="43.0779,-46.4132 39.5778,-36.4133 36.0779,-46.4133 43.0779,-46.4132"/>
</g>
</g>
</svg>
