<?xml version="1.0" encoding="UTF-8" standalone="no"?>
<!DOCTYPE svg PUBLIC "-//W3C//DTD SVG 1.1//EN"
 "http://www.w3.org/Graphics/SVG/1.1/DTD/svg11.dtd">
<!-- Generated by graphviz version 2.40.1 (20161225.0304)
 -->
<!-- Title: %3 Pages: 1 -->
<svg width="206pt" height="116pt"
 viewBox="0.00 0.00 206.00 116.00" xmlns="http://www.w3.org/2000/svg" xmlns:xlink="http://www.w3.org/1999/xlink">
<g id="graph0" class="graph" transform="scale(1 1) rotate(0) translate(4 112)">
<title>%3</title>
<polygon fill="#ffffff" stroke="transparent" points="-4,4 -4,-112 202,-112 202,4 -4,4"/>
<!-- x_1 -->
<g id="node1" class="node">
<title>x_1</title>
<ellipse fill="none" stroke="#000000" cx="27" cy="-90" rx="27" ry="18"/>
<text text-anchor="middle" x="27" y="-85.8" font-family="Times,serif" font-size="14.00" fill="#000000">x_1</text>
</g>
<!-- y_1 -->
<g id="node2" class="node">
<title>y_1</title>
<ellipse fill="none" stroke="#000000" cx="27" cy="-18" rx="27" ry="18"/>
<text text-anchor="middle" x="27" y="-13.8" font-family="Times,serif" font-size="14.00" fill="#000000">y_1</text>
</g>
<!-- x_1&#45;&gt;y_1 -->
<g id="edge1" class="edge">
<title>x_1&#45;&gt;y_1</title>
<path fill="none" stroke="#000000" d="M27,-71.8314C27,-64.131 27,-54.9743 27,-46.4166"/>
<polygon fill="#000000" stroke="#000000" points="30.5001,-46.4132 27,-36.4133 23.5001,-46.4133 30.5001,-46.4132"/>
</g>
<!-- y_2 -->
<g id="node3" class="node">
<title>y_2</title>
<ellipse fill="none" stroke="#000000" cx="99" cy="-18" rx="27" ry="18"/>
<text text-anchor="middle" x="99" y="-13.8" font-family="Times,serif" font-size="14.00" fill="#000000">y_2</text>
</g>
<!-- x_1&#45;&gt;y_2 -->
<g id="edge2" class="edge">
<title>x_1&#45;&gt;y_2</title>
<path fill="none" stroke="#000000" d="M42.2693,-74.7307C52.197,-64.803 65.3153,-51.6847 76.4363,-40.5637"/>
<polygon fill="#000000" stroke="#000000" points="79.1564,-42.7933 83.7527,-33.2473 74.2067,-37.8436 79.1564,-42.7933"/>
</g>
<!-- y_3 -->
<g id="node4" class="node">
<title>y_3</title>
<ellipse fill="none" stroke="#000000" cx="171" cy="-18" rx="27" ry="18"/>
<text text-anchor="middle" x="171" y="-13.8" font-family="Times,serif" font-size="14.00" fill="#000000">y_3</text>
</g>
<!-- x_1&#45;&gt;y_3 -->
<g id="edge3" class="edge">
<title>x_1&#45;&gt;y_3</title>
<path fill="none" stroke="#000000" d="M48.8705,-79.0647C73.2222,-66.8889 112.762,-47.119 140.2285,-33.3858"/>
<polygon fill="#000000" stroke="#000000" points="142.0165,-36.4049 149.3955,-28.8022 138.886,-30.1439 142.0165,-36.4049"/>
</g>
<!-- x_2 -->
<g id="node5" class="node">
<title>x_2</title>
<ellipse fill="none" stroke="#000000" cx="99" cy="-90" rx="27" ry="18"/>
<text text-anchor="middle" x="99" y="-85.8" font-family="Times,serif" font-size="14.00" fill="#000000">x_2</text>
</g>
<!-- x_2&#45;&gt;y_1 -->
<g id="edge4" class="edge">
<title>x_2&#45;&gt;y_1</title>
<path fill="none" stroke="#000000" d="M83.7307,-74.7307C73.803,-64.803 60.6847,-51.6847 49.5637,-40.5637"/>
<polygon fill="#000000" stroke="#000000" points="51.7933,-37.8436 42.2473,-33.2473 46.8436,-42.7933 51.7933,-37.8436"/>
</g>
<!-- x_2&#45;&gt;y_2 -->
<g id="edge5" class="edge">
<title>x_2&#45;&gt;y_2</title>
<path fill="none" stroke="#000000" d="M99,-71.8314C99,-64.131 99,-54.9743 99,-46.4166"/>
<polygon fill="#000000" stroke="#000000" points="102.5001,-46.4132 99,-36.4133 95.5001,-46.4133 102.5001,-46.4132"/>
</g>
<!-- x_2&#45;&gt;y_3 -->
<g id="edge6" class="edge">
<title>x_2&#45;&gt;y_3</title>
<path fill="none" stroke="#000000" d="M114.2693,-74.7307C124.197,-64.803 137.3153,-51.6847 148.4363,-40.5637"/>
<polygon fill="#000000" stroke="#000000" points="151.1564,-42.7933 155.7527,-33.2473 146.2067,-37.8436 151.1564,-42.7933"/>
</g>
<!-- b -->
<g id="node6" class="node">
<title>b</title>
<ellipse fill="none" stroke="#000000" cx="171" cy="-90" rx="27" ry="18"/>
<text text-anchor="middle" x="171" y="-85.8" font-family="Times,serif" font-size="14.00" fill="#000000">b</text>
</g>
<!-- b&#45;&gt;y_1 -->
<g id="edge7" class="edge">
<title>b&#45;&gt;y_1</title>
<path fill="none" stroke="#000000" d="M149.1295,-79.0647C124.7778,-66.8889 85.238,-47.119 57.7715,-33.3858"/>
<polygon fill="#000000" stroke="#000000" points="59.114,-30.1439 48.6045,-28.8022 55.9835,-36.4049 59.114,-30.1439"/>
</g>
<!-- b&#45;&gt;y_2 -->
<g id="edge8" class="edge">
<title>b&#45;&gt;y_2</title>
<path fill="none" stroke="#000000" d="M155.7307,-74.7307C145.803,-64.803 132.6847,-51.6847 121.5637,-40.5637"/>
<polygon fill="#000000" stroke="#000000" points="123.7933,-37.8436 114.2473,-33.2473 118.8436,-42.7933 123.7933,-37.8436"/>
</g>
<!-- b&#45;&gt;y_3 -->
<g id="edge9" class="edge">
<title>b&#45;&gt;y_3</title>
<path fill="none" stroke="#000000" d="M171,-71.8314C171,-64.131 171,-54.9743 171,-46.4166"/>
<polygon fill="#000000" stroke="#000000" points="174.5001,-46.4132 171,-36.4133 167.5001,-46.4133 174.5001,-46.4132"/>
</g>
</g>
</svg>
