<?xml version="1.0" encoding="UTF-8" standalone="no"?>
<!DOCTYPE svg PUBLIC "-//W3C//DTD SVG 1.1//EN"
 "http://www.w3.org/Graphics/SVG/1.1/DTD/svg11.dtd">
<!-- Generated by graphviz version 2.40.1 (20161225.0304)
 -->
<!-- Title: %3 Pages: 1 -->
<svg width="206pt" height="116pt"
 viewBox="0.00 0.00 206.00 116.00" xmlns="http://www.w3.org/2000/svg" xmlns:xlink="http://www.w3.org/1999/xlink">
<g id="graph0" class="graph" transform="scale(1 1) rotate(0) translate(4 112)">
<title>%3</title>
<polygon fill="#ffffff" stroke="transparent" points="-4,4 -4,-112 202,-112 202,4 -4,4"/>
<!-- x_1 -->
<g id="node1" class="node">
<title>x_1</title>
<ellipse fill="none" stroke="#000000" cx="63" cy="-90" rx="27" ry="18"/>
<text text-anchor="middle" x="63" y="-85.8" font-family="Times,serif" font-size="14.00" fill="#000000">x_1</text>
</g>
<!-- y_1 -->
<g id="node2" class="node">
<title>y_1</title>
<ellipse fill="none" stroke="#000000" cx="27" cy="-18" rx="27" ry="18"/>
<text text-anchor="middle" x="27" y="-13.8" font-family="Times,serif" font-size="14.00" fill="#000000">y_1</text>
</g>
<!-- x_1&#45;&gt;y_1 -->
<g id="edge1" class="edge">
<title>x_1&#45;&gt;y_1</title>
<path fill="none" stroke="#000000" d="M54.2854,-72.5708C50.0403,-64.0807 44.8464,-53.6929 40.1337,-44.2674"/>
<polygon fill="#000000" stroke="#000000" points="43.237,-42.6477 35.6343,-35.2687 36.976,-45.7782 43.237,-42.6477"/>
</g>
<!-- y_2 -->
<g id="node3" class="node">
<title>y_2</title>
<ellipse fill="none" stroke="#000000" cx="99" cy="-18" rx="27" ry="18"/>
<text text-anchor="middle" x="99" y="-13.8" font-family="Times,serif" font-size="14.00" fill="#000000">y_2</text>
</g>
<!-- x_1&#45;&gt;y_2 -->
<g id="edge2" class="edge">
<title>x_1&#45;&gt;y_2</title>
<path fill="none" stroke="#000000" d="M71.7146,-72.5708C75.9597,-64.0807 81.1536,-53.6929 85.8663,-44.2674"/>
<polygon fill="#000000" stroke="#000000" points="89.024,-45.7782 90.3657,-35.2687 82.763,-42.6477 89.024,-45.7782"/>
</g>
<!-- y_3 -->
<g id="node4" class="node">
<title>y_3</title>
<ellipse fill="none" stroke="#000000" cx="171" cy="-18" rx="27" ry="18"/>
<text text-anchor="middle" x="171" y="-13.8" font-family="Times,serif" font-size="14.00" fill="#000000">y_3</text>
</g>
<!-- x_1&#45;&gt;y_3 -->
<g id="edge3" class="edge">
<title>x_1&#45;&gt;y_3</title>
<path fill="none" stroke="#000000" d="M82.3082,-77.1278C99.3555,-65.763 124.4019,-49.0654 143.5344,-36.3104"/>
<polygon fill="#000000" stroke="#000000" points="145.4799,-39.2199 151.8589,-30.7607 141.5969,-33.3956 145.4799,-39.2199"/>
</g>
<!-- x_2 -->
<g id="node5" class="node">
<title>x_2</title>
<ellipse fill="none" stroke="#000000" cx="135" cy="-90" rx="27" ry="18"/>
<text text-anchor="middle" x="135" y="-85.8" font-family="Times,serif" font-size="14.00" fill="#000000">x_2</text>
</g>
<!-- x_2&#45;&gt;y_1 -->
<g id="edge4" class="edge">
<title>x_2&#45;&gt;y_1</title>
<path fill="none" stroke="#000000" d="M115.6918,-77.1278C98.6445,-65.763 73.5981,-49.0654 54.4656,-36.3104"/>
<polygon fill="#000000" stroke="#000000" points="56.4031,-33.3956 46.1411,-30.7607 52.5201,-39.2199 56.4031,-33.3956"/>
</g>
<!-- x_2&#45;&gt;y_2 -->
<g id="edge5" class="edge">
<title>x_2&#45;&gt;y_2</title>
<path fill="none" stroke="#000000" d="M126.2854,-72.5708C122.0403,-64.0807 116.8464,-53.6929 112.1337,-44.2674"/>
<polygon fill="#000000" stroke="#000000" points="115.237,-42.6477 107.6343,-35.2687 108.976,-45.7782 115.237,-42.6477"/>
</g>
<!-- x_2&#45;&gt;y_3 -->
<g id="edge6" class="edge">
<title>x_2&#45;&gt;y_3</title>
<path fill="none" stroke="#000000" d="M143.7146,-72.5708C147.9597,-64.0807 153.1536,-53.6929 157.8663,-44.2674"/>
<polygon fill="#000000" stroke="#000000" points="161.024,-45.7782 162.3657,-35.2687 154.763,-42.6477 161.024,-45.7782"/>
</g>
</g>
</svg>
