<?xml version="1.0" encoding="UTF-8" standalone="no"?>
<!DOCTYPE svg PUBLIC "-//W3C//DTD SVG 1.1//EN"
 "http://www.w3.org/Graphics/SVG/1.1/DTD/svg11.dtd">
<!-- Generated by graphviz version 2.40.1 (20161225.0304)
 -->
<!-- Title: %3 Pages: 1 -->
<svg width="95pt" height="188pt"
 viewBox="0.00 0.00 95.01 188.00" xmlns="http://www.w3.org/2000/svg" xmlns:xlink="http://www.w3.org/1999/xlink">
<g id="graph0" class="graph" transform="scale(1 1) rotate(0) translate(4 184)">
<title>%3</title>
<polygon fill="#ffffff" stroke="transparent" points="-4,4 -4,-184 91.006,-184 91.006,4 -4,4"/>
<!-- x -->
<g id="node1" class="node">
<title>x</title>
<ellipse fill="none" stroke="#000000" cx="43.503" cy="-162" rx="27" ry="18"/>
<text text-anchor="middle" x="43.503" y="-157.8" font-family="Times,serif" font-size="14.00" fill="#000000">x</text>
</g>
<!-- f_x_theta -->
<g id="node2" class="node">
<title>f_x_theta</title>
<ellipse fill="none" stroke="#000000" cx="43.503" cy="-90" rx="43.506" ry="18"/>
<text text-anchor="middle" x="43.503" y="-85.8" font-family="Times,serif" font-size="14.00" fill="#000000">f_x_theta</text>
</g>
<!-- x&#45;&gt;f_x_theta -->
<g id="edge1" class="edge">
<title>x&#45;&gt;f_x_theta</title>
<path fill="none" stroke="#000000" d="M43.503,-143.8314C43.503,-136.131 43.503,-126.9743 43.503,-118.4166"/>
<polygon fill="#000000" stroke="#000000" points="47.0031,-118.4132 43.503,-108.4133 40.0031,-118.4133 47.0031,-118.4132"/>
</g>
<!-- y -->
<g id="node3" class="node">
<title>y</title>
<ellipse fill="none" stroke="#000000" cx="43.503" cy="-18" rx="27" ry="18"/>
<text text-anchor="middle" x="43.503" y="-13.8" font-family="Times,serif" font-size="14.00" fill="#000000">y</text>
</g>
<!-- f_x_theta&#45;&gt;y -->
<g id="edge2" class="edge">
<title>f_x_theta&#45;&gt;y</title>
<path fill="none" stroke="#000000" d="M43.503,-71.8314C43.503,-64.131 43.503,-54.9743 43.503,-46.4166"/>
<polygon fill="#000000" stroke="#000000" points="47.0031,-46.4132 43.503,-36.4133 40.0031,-46.4133 47.0031,-46.4132"/>
</g>
</g>
</svg>
