<?xml version="1.0" encoding="UTF-8" standalone="no"?>
<!DOCTYPE svg PUBLIC "-//W3C//DTD SVG 1.1//EN"
 "http://www.w3.org/Graphics/SVG/1.1/DTD/svg11.dtd">
<!-- Generated by graphviz version 2.40.1 (20161225.0304)
 -->
<!-- Title: %3 Pages: 1 -->
<svg width="206pt" height="260pt"
 viewBox="0.00 0.00 206.46 260.00" xmlns="http://www.w3.org/2000/svg" xmlns:xlink="http://www.w3.org/1999/xlink">
<g id="graph0" class="graph" transform="scale(1 1) rotate(0) translate(4 256)">
<title>%3</title>
<polygon fill="#ffffff" stroke="transparent" points="-4,4 -4,-256 202.4576,-256 202.4576,4 -4,4"/>
<!-- s_EG_SU -->
<g id="node1" class="node">
<title>s_EG_SU</title>
<ellipse fill="none" stroke="#000000" cx="128.2155" cy="-90" rx="45.47" ry="18"/>
<text text-anchor="middle" x="128.2155" y="-85.8" font-family="Times,serif" font-size="14.00" fill="#000000">s_EG_SU</text>
</g>
<!-- ts_EG_SU -->
<g id="node2" class="node">
<title>ts_EG_SU</title>
<ellipse fill="none" stroke="#000000" cx="80.2155" cy="-18" rx="47.8841" ry="18"/>
<text text-anchor="middle" x="80.2155" y="-13.8" font-family="Times,serif" font-size="14.00" fill="#000000">ts_EG_SU</text>
</g>
<!-- s_EG_SU&#45;&gt;ts_EG_SU -->
<g id="edge1" class="edge">
<title>s_EG_SU&#45;&gt;ts_EG_SU</title>
<path fill="none" stroke="#000000" d="M116.596,-72.5708C110.8605,-63.9675 103.8259,-53.4156 97.4762,-43.8911"/>
<polygon fill="#000000" stroke="#000000" points="100.3535,-41.8973 91.8943,-35.5182 94.5292,-45.7802 100.3535,-41.8973"/>
</g>
<!-- ts_EG -->
<g id="node3" class="node">
<title>ts_EG</title>
<ellipse fill="none" stroke="#000000" cx="32.2155" cy="-90" rx="32.4324" ry="18"/>
<text text-anchor="middle" x="32.2155" y="-85.8" font-family="Times,serif" font-size="14.00" fill="#000000">ts_EG</text>
</g>
<!-- ts_EG&#45;&gt;ts_EG_SU -->
<g id="edge2" class="edge">
<title>ts_EG&#45;&gt;ts_EG_SU</title>
<path fill="none" stroke="#000000" d="M43.5908,-72.937C49.3217,-64.3407 56.3952,-53.7304 62.7929,-44.1338"/>
<polygon fill="#000000" stroke="#000000" points="65.7857,-45.9544 68.4205,-35.6924 59.9613,-42.0715 65.7857,-45.9544"/>
</g>
<!-- s_EG -->
<g id="node4" class="node">
<title>s_EG</title>
<ellipse fill="none" stroke="#000000" cx="90.2155" cy="-162" rx="29.5189" ry="18"/>
<text text-anchor="middle" x="90.2155" y="-157.8" font-family="Times,serif" font-size="14.00" fill="#000000">s_EG</text>
</g>
<!-- s_EG&#45;&gt;s_EG_SU -->
<g id="edge3" class="edge">
<title>s_EG&#45;&gt;s_EG_SU</title>
<path fill="none" stroke="#000000" d="M99.4142,-144.5708C103.8292,-136.2055 109.2166,-125.998 114.1323,-116.6839"/>
<polygon fill="#000000" stroke="#000000" points="117.2652,-118.2464 118.8375,-107.7689 111.0745,-114.9791 117.2652,-118.2464"/>
</g>
<!-- c_EG -->
<g id="node5" class="node">
<title>c_EG</title>
<ellipse fill="none" stroke="#000000" cx="168.2155" cy="-162" rx="30.4862" ry="18"/>
<text text-anchor="middle" x="168.2155" y="-157.8" font-family="Times,serif" font-size="14.00" fill="#000000">c_EG</text>
</g>
<!-- c_EG&#45;&gt;s_EG_SU -->
<g id="edge4" class="edge">
<title>c_EG&#45;&gt;s_EG_SU</title>
<path fill="none" stroke="#000000" d="M158.5326,-144.5708C153.8852,-136.2055 148.2144,-125.998 143.0398,-116.6839"/>
<polygon fill="#000000" stroke="#000000" points="146.0031,-114.8107 138.0871,-107.7689 139.884,-118.2102 146.0031,-114.8107"/>
</g>
<!-- uc -->
<g id="node6" class="node">
<title>uc</title>
<ellipse fill="none" stroke="#000000" cx="90.2155" cy="-234" rx="27" ry="18"/>
<text text-anchor="middle" x="90.2155" y="-229.8" font-family="Times,serif" font-size="14.00" fill="#000000">uc</text>
</g>
<!-- uc&#45;&gt;ts_EG -->
<g id="edge7" class="edge">
<title>uc&#45;&gt;ts_EG</title>
<path fill="none" stroke="#000000" d="M75.9787,-218.0899C67.5707,-207.879 57.3949,-193.9583 51.2155,-180 42.5151,-160.3472 37.7114,-136.4834 35.1118,-118.2682"/>
<polygon fill="#000000" stroke="#000000" points="38.5729,-117.741 33.8232,-108.2705 31.6304,-118.6359 38.5729,-117.741"/>
</g>
<!-- uc&#45;&gt;s_EG -->
<g id="edge6" class="edge">
<title>uc&#45;&gt;s_EG</title>
<path fill="none" stroke="#000000" d="M90.2155,-215.8314C90.2155,-208.131 90.2155,-198.9743 90.2155,-190.4166"/>
<polygon fill="#000000" stroke="#000000" points="93.7156,-190.4132 90.2155,-180.4133 86.7156,-190.4133 93.7156,-190.4132"/>
</g>
<!-- uc&#45;&gt;c_EG -->
<g id="edge5" class="edge">
<title>uc&#45;&gt;c_EG</title>
<path fill="none" stroke="#000000" d="M106.3771,-219.0816C117.2852,-209.0125 131.8737,-195.5463 144.1415,-184.2221"/>
<polygon fill="#000000" stroke="#000000" points="146.8321,-186.5017 151.8062,-177.147 142.0841,-181.3581 146.8321,-186.5017"/>
</g>
</g>
</svg>
