<?xml version="1.0" encoding="UTF-8" standalone="no"?>
<!DOCTYPE svg PUBLIC "-//W3C//DTD SVG 1.1//EN"
 "http://www.w3.org/Graphics/SVG/1.1/DTD/svg11.dtd">
<!-- Generated by graphviz version 2.40.1 (20161225.0304)
 -->
<!-- Title: %3 Pages: 1 -->
<svg width="62pt" height="260pt"
 viewBox="0.00 0.00 62.00 260.00" xmlns="http://www.w3.org/2000/svg" xmlns:xlink="http://www.w3.org/1999/xlink">
<g id="graph0" class="graph" transform="scale(1 1) rotate(0) translate(4 256)">
<title>%3</title>
<polygon fill="#ffffff" stroke="transparent" points="-4,4 -4,-256 58,-256 58,4 -4,4"/>
<!-- a -->
<g id="node1" class="node">
<title>a</title>
<ellipse fill="none" stroke="#000000" cx="27" cy="-234" rx="27" ry="18"/>
<text text-anchor="middle" x="27" y="-229.8" font-family="Times,serif" font-size="14.00" fill="#000000">a</text>
</g>
<!-- b -->
<g id="node2" class="node">
<title>b</title>
<ellipse fill="none" stroke="#000000" cx="27" cy="-162" rx="27" ry="18"/>
<text text-anchor="middle" x="27" y="-157.8" font-family="Times,serif" font-size="14.00" fill="#000000">b</text>
</g>
<!-- a&#45;&gt;b -->
<g id="edge1" class="edge">
<title>a&#45;&gt;b</title>
<path fill="none" stroke="#000000" d="M27,-215.8314C27,-208.131 27,-198.9743 27,-190.4166"/>
<polygon fill="#000000" stroke="#000000" points="30.5001,-190.4132 27,-180.4133 23.5001,-190.4133 30.5001,-190.4132"/>
</g>
<!-- c -->
<g id="node3" class="node">
<title>c</title>
<ellipse fill="none" stroke="#000000" cx="27" cy="-90" rx="27" ry="18"/>
<text text-anchor="middle" x="27" y="-85.8" font-family="Times,serif" font-size="14.00" fill="#000000">c</text>
</g>
<!-- b&#45;&gt;c -->
<g id="edge2" class="edge">
<title>b&#45;&gt;c</title>
<path fill="none" stroke="#000000" d="M21.0843,-144.2022C20.2798,-136.1807 20.0571,-126.5231 20.4162,-117.5957"/>
<polygon fill="#000000" stroke="#000000" points="23.9097,-117.8099 21.105,-107.593 16.9262,-117.3289 23.9097,-117.8099"/>
</g>
<!-- c&#45;&gt;b -->
<g id="edge3" class="edge">
<title>c&#45;&gt;b</title>
<path fill="none" stroke="#000000" d="M32.895,-107.593C33.7094,-115.5865 33.942,-125.2363 33.5928,-134.1759"/>
<polygon fill="#000000" stroke="#000000" points="30.0976,-133.9891 32.9157,-144.2022 37.0817,-134.4608 30.0976,-133.9891"/>
</g>
<!-- d -->
<g id="node4" class="node">
<title>d</title>
<ellipse fill="none" stroke="#000000" cx="27" cy="-18" rx="27" ry="18"/>
<text text-anchor="middle" x="27" y="-13.8" font-family="Times,serif" font-size="14.00" fill="#000000">d</text>
</g>
<!-- c&#45;&gt;d -->
<g id="edge4" class="edge">
<title>c&#45;&gt;d</title>
<path fill="none" stroke="#000000" d="M21.0843,-72.2022C20.2798,-64.1807 20.0571,-54.5231 20.4162,-45.5957"/>
<polygon fill="#000000" stroke="#000000" points="23.9097,-45.8099 21.105,-35.593 16.9262,-45.3289 23.9097,-45.8099"/>
</g>
<!-- d&#45;&gt;c -->
<g id="edge5" class="edge">
<title>d&#45;&gt;c</title>
<path fill="none" stroke="#000000" d="M32.895,-35.593C33.7094,-43.5865 33.942,-53.2363 33.5928,-62.1759"/>
<polygon fill="#000000" stroke="#000000" points="30.0976,-61.9891 32.9157,-72.2022 37.0817,-62.4608 30.0976,-61.9891"/>
</g>
</g>
</svg>
