<?xml version="1.0" encoding="UTF-8" standalone="no"?>
<!DOCTYPE svg PUBLIC "-//W3C//DTD SVG 1.1//EN"
 "http://www.w3.org/Graphics/SVG/1.1/DTD/svg11.dtd">
<!-- Generated by graphviz version 2.40.1 (20161225.0304)
 -->
<!-- Title: %3 Pages: 1 -->
<svg width="89pt" height="332pt"
 viewBox="0.00 0.00 89.00 332.00" xmlns="http://www.w3.org/2000/svg" xmlns:xlink="http://www.w3.org/1999/xlink">
<g id="graph0" class="graph" transform="scale(1 1) rotate(0) translate(4 328)">
<title>%3</title>
<polygon fill="#ffffff" stroke="transparent" points="-4,4 -4,-328 85,-328 85,4 -4,4"/>
<!-- x_1 -->
<g id="node1" class="node">
<title>x_1</title>
<ellipse fill="none" stroke="#000000" cx="54" cy="-306" rx="27" ry="18"/>
<text text-anchor="middle" x="54" y="-301.8" font-family="Times,serif" font-size="14.00" fill="#000000">x_1</text>
</g>
<!-- h_1 -->
<g id="node2" class="node">
<title>h_1</title>
<ellipse fill="none" stroke="#000000" cx="54" cy="-234" rx="27" ry="18"/>
<text text-anchor="middle" x="54" y="-229.8" font-family="Times,serif" font-size="14.00" fill="#000000">h_1</text>
</g>
<!-- x_1&#45;&gt;h_1 -->
<g id="edge1" class="edge">
<title>x_1&#45;&gt;h_1</title>
<path fill="none" stroke="#000000" d="M54,-287.8314C54,-280.131 54,-270.9743 54,-262.4166"/>
<polygon fill="#000000" stroke="#000000" points="57.5001,-262.4132 54,-252.4133 50.5001,-262.4133 57.5001,-262.4132"/>
</g>
<!-- x_2 -->
<g id="node3" class="node">
<title>x_2</title>
<ellipse fill="none" stroke="#000000" cx="27" cy="-162" rx="27" ry="18"/>
<text text-anchor="middle" x="27" y="-157.8" font-family="Times,serif" font-size="14.00" fill="#000000">x_2</text>
</g>
<!-- h_1&#45;&gt;x_2 -->
<g id="edge2" class="edge">
<title>h_1&#45;&gt;x_2</title>
<path fill="none" stroke="#000000" d="M47.3258,-216.2022C44.2524,-208.0064 40.5384,-198.1024 37.1305,-189.0145"/>
<polygon fill="#000000" stroke="#000000" points="40.3858,-187.7274 33.5974,-179.593 33.8315,-190.1853 40.3858,-187.7274"/>
</g>
<!-- h_2 -->
<g id="node4" class="node">
<title>h_2</title>
<ellipse fill="none" stroke="#000000" cx="27" cy="-90" rx="27" ry="18"/>
<text text-anchor="middle" x="27" y="-85.8" font-family="Times,serif" font-size="14.00" fill="#000000">h_2</text>
</g>
<!-- x_2&#45;&gt;h_2 -->
<g id="edge3" class="edge">
<title>x_2&#45;&gt;h_2</title>
<path fill="none" stroke="#000000" d="M27,-143.8314C27,-136.131 27,-126.9743 27,-118.4166"/>
<polygon fill="#000000" stroke="#000000" points="30.5001,-118.4132 27,-108.4133 23.5001,-118.4133 30.5001,-118.4132"/>
</g>
<!-- x_i -->
<g id="node5" class="node">
<title>x_i</title>
<ellipse fill="none" stroke="#000000" cx="54" cy="-18" rx="27" ry="18"/>
<text text-anchor="middle" x="54" y="-13.8" font-family="Times,serif" font-size="14.00" fill="#000000">x_i</text>
</g>
<!-- h_2&#45;&gt;x_i -->
<g id="edge4" class="edge">
<title>h_2&#45;&gt;x_i</title>
<path fill="none" stroke="#000000" d="M33.6742,-72.2022C36.7476,-64.0064 40.4616,-54.1024 43.8695,-45.0145"/>
<polygon fill="#000000" stroke="#000000" points="47.1685,-46.1853 47.4026,-35.593 40.6142,-43.7274 47.1685,-46.1853"/>
</g>
<!-- x_i&#45;&gt;h_1 -->
<g id="edge5" class="edge">
<title>x_i&#45;&gt;h_1</title>
<path fill="none" stroke="#000000" d="M57.7474,-35.9069C59.7466,-46.3759 61.9966,-59.8759 63,-72 66.9591,-119.8364 66.9591,-132.1636 63,-180 62.2945,-188.5247 60.9727,-197.7297 59.5551,-206.083"/>
<polygon fill="#000000" stroke="#000000" points="56.0803,-205.6302 57.7474,-216.0931 62.9689,-206.8742 56.0803,-205.6302"/>
</g>
</g>
</svg>
