<?xml version="1.0" encoding="UTF-8" standalone="no"?>
<!DOCTYPE svg PUBLIC "-//W3C//DTD SVG 1.1//EN"
 "http://www.w3.org/Graphics/SVG/1.1/DTD/svg11.dtd">
<!-- Generated by graphviz version 2.40.1 (20161225.0304)
 -->
<!-- Title: %3 Pages: 1 -->
<svg width="445pt" height="404pt"
 viewBox="0.00 0.00 445.43 404.00" xmlns="http://www.w3.org/2000/svg" xmlns:xlink="http://www.w3.org/1999/xlink">
<g id="graph0" class="graph" transform="scale(1 1) rotate(0) translate(4 400)">
<title>%3</title>
<polygon fill="#ffffff" stroke="transparent" points="-4,4 -4,-400 441.4256,-400 441.4256,4 -4,4"/>
<!-- concept_stage -->
<g id="node1" class="node">
<title>concept_stage</title>
<ellipse fill="none" stroke="#000000" cx="241.4256" cy="-378" rx="60.3942" ry="18"/>
<text text-anchor="middle" x="241.4256" y="-373.8" font-family="Times,serif" font-size="14.00" fill="#000000">concept_stage</text>
</g>
<!-- start_up -->
<g id="node2" class="node">
<title>start_up</title>
<ellipse fill="none" stroke="#000000" cx="241.4256" cy="-306" rx="38.6955" ry="18"/>
<text text-anchor="middle" x="241.4256" y="-301.8" font-family="Times,serif" font-size="14.00" fill="#000000">start_up</text>
</g>
<!-- concept_stage&#45;&gt;start_up -->
<g id="edge1" class="edge">
<title>concept_stage&#45;&gt;start_up</title>
<path fill="none" stroke="#000000" d="M241.4256,-359.8314C241.4256,-352.131 241.4256,-342.9743 241.4256,-334.4166"/>
<polygon fill="#000000" stroke="#000000" points="244.9257,-334.4132 241.4256,-324.4133 237.9257,-334.4133 244.9257,-334.4132"/>
</g>
<!-- first_stage_expansion -->
<g id="node3" class="node">
<title>first_stage_expansion</title>
<ellipse fill="none" stroke="#000000" cx="241.4256" cy="-234" rx="86.9809" ry="18"/>
<text text-anchor="middle" x="241.4256" y="-229.8" font-family="Times,serif" font-size="14.00" fill="#000000">first_stage_expansion</text>
</g>
<!-- start_up&#45;&gt;first_stage_expansion -->
<g id="edge2" class="edge">
<title>start_up&#45;&gt;first_stage_expansion</title>
<path fill="none" stroke="#000000" d="M241.4256,-287.8314C241.4256,-280.131 241.4256,-270.9743 241.4256,-262.4166"/>
<polygon fill="#000000" stroke="#000000" points="244.9257,-262.4132 241.4256,-252.4133 237.9257,-262.4133 244.9257,-262.4132"/>
</g>
<!-- valley_of_death -->
<g id="node4" class="node">
<title>valley_of_death</title>
<ellipse fill="none" stroke="#000000" cx="154.4256" cy="-162" rx="67.1511" ry="18"/>
<text text-anchor="middle" x="154.4256" y="-157.8" font-family="Times,serif" font-size="14.00" fill="#000000">valley_of_death</text>
</g>
<!-- first_stage_expansion&#45;&gt;valley_of_death -->
<g id="edge3" class="edge">
<title>first_stage_expansion&#45;&gt;valley_of_death</title>
<path fill="none" stroke="#000000" d="M219.92,-216.2022C208.8813,-207.0668 195.2784,-195.8092 183.335,-185.925"/>
<polygon fill="#000000" stroke="#000000" points="185.3191,-183.0239 175.3837,-179.3446 180.8561,-188.4167 185.3191,-183.0239"/>
</g>
<!-- later_stage_expansion -->
<g id="node8" class="node">
<title>later_stage_expansion</title>
<ellipse fill="none" stroke="#000000" cx="328.4256" cy="-162" rx="88.8756" ry="18"/>
<text text-anchor="middle" x="328.4256" y="-157.8" font-family="Times,serif" font-size="14.00" fill="#000000">later_stage_expansion</text>
</g>
<!-- first_stage_expansion&#45;&gt;later_stage_expansion -->
<g id="edge7" class="edge">
<title>first_stage_expansion&#45;&gt;later_stage_expansion</title>
<path fill="none" stroke="#000000" d="M262.9313,-216.2022C273.8882,-207.1345 287.3715,-195.9758 299.2505,-186.1449"/>
<polygon fill="#000000" stroke="#000000" points="301.6949,-188.6651 307.1674,-179.593 297.2319,-183.2724 301.6949,-188.6651"/>
</g>
<!-- financial_distress -->
<g id="node5" class="node">
<title>financial_distress</title>
<ellipse fill="none" stroke="#000000" cx="158.4256" cy="-90" rx="71.5204" ry="18"/>
<text text-anchor="middle" x="158.4256" y="-85.8" font-family="Times,serif" font-size="14.00" fill="#000000">financial_distress</text>
</g>
<!-- valley_of_death&#45;&gt;financial_distress -->
<g id="edge4" class="edge">
<title>valley_of_death&#45;&gt;financial_distress</title>
<path fill="none" stroke="#000000" d="M155.435,-143.8314C155.8628,-136.131 156.3715,-126.9743 156.8469,-118.4166"/>
<polygon fill="#000000" stroke="#000000" points="160.3425,-118.592 157.4027,-108.4133 153.3533,-118.2037 160.3425,-118.592"/>
</g>
<!-- liquidation -->
<g id="node6" class="node">
<title>liquidation</title>
<ellipse fill="none" stroke="#000000" cx="48.4256" cy="-18" rx="48.3514" ry="18"/>
<text text-anchor="middle" x="48.4256" y="-13.8" font-family="Times,serif" font-size="14.00" fill="#000000">liquidation</text>
</g>
<!-- financial_distress&#45;&gt;liquidation -->
<g id="edge5" class="edge">
<title>financial_distress&#45;&gt;liquidation</title>
<path fill="none" stroke="#000000" d="M132.6355,-73.1192C117.3118,-63.0892 97.7266,-50.2697 81.3008,-39.5183"/>
<polygon fill="#000000" stroke="#000000" points="82.8314,-36.3371 72.5475,-33.7889 78.9977,-42.194 82.8314,-36.3371"/>
</g>
<!-- restructuring -->
<g id="node7" class="node">
<title>restructuring</title>
<ellipse fill="none" stroke="#000000" cx="170.4256" cy="-18" rx="55.0836" ry="18"/>
<text text-anchor="middle" x="170.4256" y="-13.8" font-family="Times,serif" font-size="14.00" fill="#000000">restructuring</text>
</g>
<!-- financial_distress&#45;&gt;restructuring -->
<g id="edge6" class="edge">
<title>financial_distress&#45;&gt;restructuring</title>
<path fill="none" stroke="#000000" d="M161.4537,-71.8314C162.7371,-64.131 164.2632,-54.9743 165.6895,-46.4166"/>
<polygon fill="#000000" stroke="#000000" points="169.1651,-46.8526 167.3567,-36.4133 162.2603,-45.7018 169.1651,-46.8526"/>
</g>
<!-- later_stage_expansion&#45;&gt;financial_distress -->
<g id="edge8" class="edge">
<title>later_stage_expansion&#45;&gt;financial_distress</title>
<path fill="none" stroke="#000000" d="M289.85,-145.6621C264.548,-134.9459 231.3292,-120.8768 204.6196,-109.5645"/>
<polygon fill="#000000" stroke="#000000" points="205.6737,-106.21 195.1005,-105.5329 202.9437,-112.6558 205.6737,-106.21"/>
</g>
<!-- harvesting_growth -->
<g id="node9" class="node">
<title>harvesting_growth</title>
<ellipse fill="none" stroke="#000000" cx="328.4256" cy="-90" rx="76.3398" ry="18"/>
<text text-anchor="middle" x="328.4256" y="-85.8" font-family="Times,serif" font-size="14.00" fill="#000000">harvesting_growth</text>
</g>
<!-- later_stage_expansion&#45;&gt;harvesting_growth -->
<g id="edge9" class="edge">
<title>later_stage_expansion&#45;&gt;harvesting_growth</title>
<path fill="none" stroke="#000000" d="M328.4256,-143.8314C328.4256,-136.131 328.4256,-126.9743 328.4256,-118.4166"/>
<polygon fill="#000000" stroke="#000000" points="331.9257,-118.4132 328.4256,-108.4133 324.9257,-118.4133 331.9257,-118.4132"/>
</g>
<!-- acquisition -->
<g id="node10" class="node">
<title>acquisition</title>
<ellipse fill="none" stroke="#000000" cx="316.4256" cy="-18" rx="48.8273" ry="18"/>
<text text-anchor="middle" x="316.4256" y="-13.8" font-family="Times,serif" font-size="14.00" fill="#000000">acquisition</text>
</g>
<!-- harvesting_growth&#45;&gt;acquisition -->
<g id="edge10" class="edge">
<title>harvesting_growth&#45;&gt;acquisition</title>
<path fill="none" stroke="#000000" d="M325.3975,-71.8314C324.1141,-64.131 322.588,-54.9743 321.1617,-46.4166"/>
<polygon fill="#000000" stroke="#000000" points="324.591,-45.7018 319.4945,-36.4133 317.6862,-46.8526 324.591,-45.7018"/>
</g>
<!-- IPO -->
<g id="node11" class="node">
<title>IPO</title>
<ellipse fill="none" stroke="#000000" cx="410.4256" cy="-18" rx="27" ry="18"/>
<text text-anchor="middle" x="410.4256" y="-13.8" font-family="Times,serif" font-size="14.00" fill="#000000">IPO</text>
</g>
<!-- harvesting_growth&#45;&gt;IPO -->
<g id="edge11" class="edge">
<title>harvesting_growth&#45;&gt;IPO</title>
<path fill="none" stroke="#000000" d="M348.2755,-72.5708C359.7845,-62.4653 374.3554,-49.6714 386.4955,-39.0118"/>
<polygon fill="#000000" stroke="#000000" points="388.8605,-41.593 394.0656,-32.3649 384.2419,-36.3329 388.8605,-41.593"/>
</g>
</g>
</svg>
