<?xml version="1.0" encoding="UTF-8" standalone="no"?>
<!DOCTYPE svg PUBLIC "-//W3C//DTD SVG 1.1//EN"
 "http://www.w3.org/Graphics/SVG/1.1/DTD/svg11.dtd">
<!-- Generated by graphviz version 2.40.1 (20161225.0304)
 -->
<!-- Title: %3 Pages: 1 -->
<svg width="278pt" height="188pt"
 viewBox="0.00 0.00 278.00 188.00" xmlns="http://www.w3.org/2000/svg" xmlns:xlink="http://www.w3.org/1999/xlink">
<g id="graph0" class="graph" transform="scale(1 1) rotate(0) translate(4 184)">
<title>%3</title>
<polygon fill="#ffffff" stroke="transparent" points="-4,4 -4,-184 274,-184 274,4 -4,4"/>
<!-- v1 -->
<g id="node1" class="node">
<title>v1</title>
<ellipse fill="none" stroke="#000000" cx="63" cy="-162" rx="27" ry="18"/>
<text text-anchor="middle" x="63" y="-157.8" font-family="Times,serif" font-size="14.00" fill="#000000">v1</text>
</g>
<!-- h1 -->
<g id="node2" class="node">
<title>h1</title>
<ellipse fill="none" stroke="#000000" cx="99" cy="-90" rx="27" ry="18"/>
<text text-anchor="middle" x="99" y="-85.8" font-family="Times,serif" font-size="14.00" fill="#000000">h1</text>
</g>
<!-- v1&#45;&gt;h1 -->
<g id="edge1" class="edge">
<title>v1&#45;&gt;h1</title>
<path fill="none" stroke="#000000" d="M71.7146,-144.5708C75.9597,-136.0807 81.1536,-125.6929 85.8663,-116.2674"/>
<polygon fill="#000000" stroke="#000000" points="89.024,-117.7782 90.3657,-107.2687 82.763,-114.6477 89.024,-117.7782"/>
</g>
<!-- h2 -->
<g id="node3" class="node">
<title>h2</title>
<ellipse fill="none" stroke="#000000" cx="171" cy="-90" rx="27" ry="18"/>
<text text-anchor="middle" x="171" y="-85.8" font-family="Times,serif" font-size="14.00" fill="#000000">h2</text>
</g>
<!-- v1&#45;&gt;h2 -->
<g id="edge2" class="edge">
<title>v1&#45;&gt;h2</title>
<path fill="none" stroke="#000000" d="M82.3082,-149.1278C99.3555,-137.763 124.4019,-121.0654 143.5344,-108.3104"/>
<polygon fill="#000000" stroke="#000000" points="145.4799,-111.2199 151.8589,-102.7607 141.5969,-105.3956 145.4799,-111.2199"/>
</g>
<!-- vv1 -->
<g id="node6" class="node">
<title>vv1</title>
<ellipse fill="none" stroke="#000000" cx="171" cy="-18" rx="27" ry="18"/>
<text text-anchor="middle" x="171" y="-13.8" font-family="Times,serif" font-size="14.00" fill="#000000">vv1</text>
</g>
<!-- h1&#45;&gt;vv1 -->
<g id="edge7" class="edge">
<title>h1&#45;&gt;vv1</title>
<path fill="none" stroke="#000000" d="M114.2693,-74.7307C124.197,-64.803 137.3153,-51.6847 148.4363,-40.5637"/>
<polygon fill="#000000" stroke="#000000" points="151.1564,-42.7933 155.7527,-33.2473 146.2067,-37.8436 151.1564,-42.7933"/>
</g>
<!-- vv2 -->
<g id="node7" class="node">
<title>vv2</title>
<ellipse fill="none" stroke="#000000" cx="243" cy="-18" rx="27" ry="18"/>
<text text-anchor="middle" x="243" y="-13.8" font-family="Times,serif" font-size="14.00" fill="#000000">vv2</text>
</g>
<!-- h1&#45;&gt;vv2 -->
<g id="edge8" class="edge">
<title>h1&#45;&gt;vv2</title>
<path fill="none" stroke="#000000" d="M120.8705,-79.0647C145.2222,-66.8889 184.762,-47.119 212.2285,-33.3858"/>
<polygon fill="#000000" stroke="#000000" points="214.0165,-36.4049 221.3955,-28.8022 210.886,-30.1439 214.0165,-36.4049"/>
</g>
<!-- vv3 -->
<g id="node8" class="node">
<title>vv3</title>
<ellipse fill="none" stroke="#000000" cx="27" cy="-18" rx="27" ry="18"/>
<text text-anchor="middle" x="27" y="-13.8" font-family="Times,serif" font-size="14.00" fill="#000000">vv3</text>
</g>
<!-- h1&#45;&gt;vv3 -->
<g id="edge9" class="edge">
<title>h1&#45;&gt;vv3</title>
<path fill="none" stroke="#000000" d="M83.7307,-74.7307C73.803,-64.803 60.6847,-51.6847 49.5637,-40.5637"/>
<polygon fill="#000000" stroke="#000000" points="51.7933,-37.8436 42.2473,-33.2473 46.8436,-42.7933 51.7933,-37.8436"/>
</g>
<!-- vv4 -->
<g id="node9" class="node">
<title>vv4</title>
<ellipse fill="none" stroke="#000000" cx="99" cy="-18" rx="27" ry="18"/>
<text text-anchor="middle" x="99" y="-13.8" font-family="Times,serif" font-size="14.00" fill="#000000">vv4</text>
</g>
<!-- h1&#45;&gt;vv4 -->
<g id="edge10" class="edge">
<title>h1&#45;&gt;vv4</title>
<path fill="none" stroke="#000000" d="M99,-71.8314C99,-64.131 99,-54.9743 99,-46.4166"/>
<polygon fill="#000000" stroke="#000000" points="102.5001,-46.4132 99,-36.4133 95.5001,-46.4133 102.5001,-46.4132"/>
</g>
<!-- h2&#45;&gt;vv1 -->
<g id="edge11" class="edge">
<title>h2&#45;&gt;vv1</title>
<path fill="none" stroke="#000000" d="M171,-71.8314C171,-64.131 171,-54.9743 171,-46.4166"/>
<polygon fill="#000000" stroke="#000000" points="174.5001,-46.4132 171,-36.4133 167.5001,-46.4133 174.5001,-46.4132"/>
</g>
<!-- h2&#45;&gt;vv2 -->
<g id="edge12" class="edge">
<title>h2&#45;&gt;vv2</title>
<path fill="none" stroke="#000000" d="M186.2693,-74.7307C196.197,-64.803 209.3153,-51.6847 220.4363,-40.5637"/>
<polygon fill="#000000" stroke="#000000" points="223.1564,-42.7933 227.7527,-33.2473 218.2067,-37.8436 223.1564,-42.7933"/>
</g>
<!-- h2&#45;&gt;vv3 -->
<g id="edge13" class="edge">
<title>h2&#45;&gt;vv3</title>
<path fill="none" stroke="#000000" d="M149.1295,-79.0647C124.7778,-66.8889 85.238,-47.119 57.7715,-33.3858"/>
<polygon fill="#000000" stroke="#000000" points="59.114,-30.1439 48.6045,-28.8022 55.9835,-36.4049 59.114,-30.1439"/>
</g>
<!-- h2&#45;&gt;vv4 -->
<g id="edge14" class="edge">
<title>h2&#45;&gt;vv4</title>
<path fill="none" stroke="#000000" d="M155.7307,-74.7307C145.803,-64.803 132.6847,-51.6847 121.5637,-40.5637"/>
<polygon fill="#000000" stroke="#000000" points="123.7933,-37.8436 114.2473,-33.2473 118.8436,-42.7933 123.7933,-37.8436"/>
</g>
<!-- v2 -->
<g id="node4" class="node">
<title>v2</title>
<ellipse fill="none" stroke="#000000" cx="135" cy="-162" rx="27" ry="18"/>
<text text-anchor="middle" x="135" y="-157.8" font-family="Times,serif" font-size="14.00" fill="#000000">v2</text>
</g>
<!-- v2&#45;&gt;h1 -->
<g id="edge3" class="edge">
<title>v2&#45;&gt;h1</title>
<path fill="none" stroke="#000000" d="M126.2854,-144.5708C122.0403,-136.0807 116.8464,-125.6929 112.1337,-116.2674"/>
<polygon fill="#000000" stroke="#000000" points="115.237,-114.6477 107.6343,-107.2687 108.976,-117.7782 115.237,-114.6477"/>
</g>
<!-- v2&#45;&gt;h2 -->
<g id="edge4" class="edge">
<title>v2&#45;&gt;h2</title>
<path fill="none" stroke="#000000" d="M143.7146,-144.5708C147.9597,-136.0807 153.1536,-125.6929 157.8663,-116.2674"/>
<polygon fill="#000000" stroke="#000000" points="161.024,-117.7782 162.3657,-107.2687 154.763,-114.6477 161.024,-117.7782"/>
</g>
<!-- v3 -->
<g id="node5" class="node">
<title>v3</title>
<ellipse fill="none" stroke="#000000" cx="207" cy="-162" rx="27" ry="18"/>
<text text-anchor="middle" x="207" y="-157.8" font-family="Times,serif" font-size="14.00" fill="#000000">v3</text>
</g>
<!-- v3&#45;&gt;h1 -->
<g id="edge5" class="edge">
<title>v3&#45;&gt;h1</title>
<path fill="none" stroke="#000000" d="M187.6918,-149.1278C170.6445,-137.763 145.5981,-121.0654 126.4656,-108.3104"/>
<polygon fill="#000000" stroke="#000000" points="128.4031,-105.3956 118.1411,-102.7607 124.5201,-111.2199 128.4031,-105.3956"/>
</g>
<!-- v3&#45;&gt;h2 -->
<g id="edge6" class="edge">
<title>v3&#45;&gt;h2</title>
<path fill="none" stroke="#000000" d="M198.2854,-144.5708C194.0403,-136.0807 188.8464,-125.6929 184.1337,-116.2674"/>
<polygon fill="#000000" stroke="#000000" points="187.237,-114.6477 179.6343,-107.2687 180.976,-117.7782 187.237,-114.6477"/>
</g>
</g>
</svg>
