<?xml version="1.0" encoding="UTF-8" standalone="no"?>
<!DOCTYPE svg PUBLIC "-//W3C//DTD SVG 1.1//EN"
 "http://www.w3.org/Graphics/SVG/1.1/DTD/svg11.dtd">
<!-- Generated by graphviz version 2.40.1 (20161225.0304)
 -->
<!-- Title: %3 Pages: 1 -->
<svg width="124pt" height="188pt"
 viewBox="0.00 0.00 123.90 188.00" xmlns="http://www.w3.org/2000/svg" xmlns:xlink="http://www.w3.org/1999/xlink">
<g id="graph0" class="graph" transform="scale(1 1) rotate(0) translate(4 184)">
<title>%3</title>
<polygon fill="#ffffff" stroke="transparent" points="-4,4 -4,-184 119.9024,-184 119.9024,4 -4,4"/>
<!-- CR -->
<g id="node1" class="node">
<title>CR</title>
<ellipse fill="none" stroke="#000000" cx="88.9024" cy="-162" rx="27" ry="18"/>
<text text-anchor="middle" x="88.9024" y="-157.8" font-family="Times,serif" font-size="14.00" fill="#000000">CR</text>
</g>
<!-- second_PR -->
<g id="node2" class="node">
<title>second_PR</title>
<ellipse fill="none" stroke="#000000" cx="49.9024" cy="-90" rx="49.805" ry="18"/>
<text text-anchor="middle" x="49.9024" y="-85.8" font-family="Times,serif" font-size="14.00" fill="#000000">second_PR</text>
</g>
<!-- CR&#45;&gt;second_PR -->
<g id="edge1" class="edge">
<title>CR&#45;&gt;second_PR</title>
<path fill="none" stroke="#000000" d="M79.66,-144.937C75.0986,-136.5161 69.4905,-126.1627 64.3772,-116.7226"/>
<polygon fill="#000000" stroke="#000000" points="67.3262,-114.8183 59.4858,-107.6924 61.1712,-118.1524 67.3262,-114.8183"/>
</g>
<!-- PR -->
<g id="node3" class="node">
<title>PR</title>
<ellipse fill="none" stroke="#000000" cx="88.9024" cy="-18" rx="27" ry="18"/>
<text text-anchor="middle" x="88.9024" y="-13.8" font-family="Times,serif" font-size="14.00" fill="#000000">PR</text>
</g>
<!-- CR&#45;&gt;PR -->
<g id="edge3" class="edge">
<title>CR&#45;&gt;PR</title>
<path fill="none" stroke="#000000" d="M97.2092,-144.4469C101.6448,-134.0959 106.6448,-120.5959 108.9024,-108 111.7252,-92.251 111.7252,-87.749 108.9024,-72 107.2797,-62.9467 104.2404,-53.4264 101.0121,-44.9439"/>
<polygon fill="#000000" stroke="#000000" points="104.2069,-43.5082 97.2092,-35.5531 97.7187,-46.1357 104.2069,-43.5082"/>
</g>
<!-- second_PR&#45;&gt;PR -->
<g id="edge2" class="edge">
<title>second_PR&#45;&gt;PR</title>
<path fill="none" stroke="#000000" d="M59.5429,-72.2022C64.1444,-63.7071 69.74,-53.3767 74.807,-44.0223"/>
<polygon fill="#000000" stroke="#000000" points="77.9561,-45.5572 79.6414,-35.0972 71.801,-42.2231 77.9561,-45.5572"/>
</g>
</g>
</svg>
