<?xml version="1.0" encoding="UTF-8" standalone="no"?>
<!DOCTYPE svg PUBLIC "-//W3C//DTD SVG 1.1//EN"
 "http://www.w3.org/Graphics/SVG/1.1/DTD/svg11.dtd">
<!-- Generated by graphviz version 2.40.1 (20161225.0304)
 -->
<!-- Title: %3 Pages: 1 -->
<svg width="391pt" height="260pt"
 viewBox="0.00 0.00 390.90 260.00" xmlns="http://www.w3.org/2000/svg" xmlns:xlink="http://www.w3.org/1999/xlink">
<g id="graph0" class="graph" transform="scale(1 1) rotate(0) translate(4 256)">
<title>%3</title>
<polygon fill="#ffffff" stroke="transparent" points="-4,4 -4,-256 386.9002,-256 386.9002,4 -4,4"/>
<!-- securityFlaws -->
<g id="node1" class="node">
<title>securityFlaws</title>
<ellipse fill="none" stroke="#000000" cx="264.1277" cy="-234" rx="59.4599" ry="18"/>
<text text-anchor="middle" x="264.1277" y="-229.8" font-family="Times,serif" font-size="14.00" fill="#000000">securityFlaws</text>
</g>
<!-- intentional -->
<g id="node2" class="node">
<title>intentional</title>
<ellipse fill="none" stroke="#000000" cx="203.1277" cy="-162" rx="47.8582" ry="18"/>
<text text-anchor="middle" x="203.1277" y="-157.8" font-family="Times,serif" font-size="14.00" fill="#000000">intentional</text>
</g>
<!-- securityFlaws&#45;&gt;intentional -->
<g id="edge1" class="edge">
<title>securityFlaws&#45;&gt;intentional</title>
<path fill="none" stroke="#000000" d="M249.049,-216.2022C241.607,-207.4182 232.5026,-196.672 224.3687,-187.0714"/>
<polygon fill="#000000" stroke="#000000" points="226.9571,-184.712 217.8224,-179.3446 221.6162,-189.2369 226.9571,-184.712"/>
</g>
<!-- unintentional -->
<g id="node7" class="node">
<title>unintentional</title>
<ellipse fill="none" stroke="#000000" cx="326.1277" cy="-162" rx="56.5459" ry="18"/>
<text text-anchor="middle" x="326.1277" y="-157.8" font-family="Times,serif" font-size="14.00" fill="#000000">unintentional</text>
</g>
<!-- securityFlaws&#45;&gt;unintentional -->
<g id="edge6" class="edge">
<title>securityFlaws&#45;&gt;unintentional</title>
<path fill="none" stroke="#000000" d="M279.1362,-216.5708C286.6957,-207.7919 296.0025,-196.9841 304.3336,-187.3093"/>
<polygon fill="#000000" stroke="#000000" points="307.1695,-189.3798 311.0425,-179.5182 301.8651,-184.8121 307.1695,-189.3798"/>
</g>
<!-- malicious -->
<g id="node3" class="node">
<title>malicious</title>
<ellipse fill="none" stroke="#000000" cx="83.1277" cy="-90" rx="44.4837" ry="18"/>
<text text-anchor="middle" x="83.1277" y="-85.8" font-family="Times,serif" font-size="14.00" fill="#000000">malicious</text>
</g>
<!-- intentional&#45;&gt;malicious -->
<g id="edge2" class="edge">
<title>intentional&#45;&gt;malicious</title>
<path fill="none" stroke="#000000" d="M177.6788,-146.7307C159.9798,-136.1113 136.1961,-121.8411 116.9107,-110.2698"/>
<polygon fill="#000000" stroke="#000000" points="118.5041,-107.1442 108.1284,-105.0004 114.9026,-113.1467 118.5041,-107.1442"/>
</g>
<!-- nonMalicious -->
<g id="node6" class="node">
<title>nonMalicious</title>
<ellipse fill="none" stroke="#000000" cx="204.1277" cy="-90" rx="58.9841" ry="18"/>
<text text-anchor="middle" x="204.1277" y="-85.8" font-family="Times,serif" font-size="14.00" fill="#000000">nonMalicious</text>
</g>
<!-- intentional&#45;&gt;nonMalicious -->
<g id="edge5" class="edge">
<title>intentional&#45;&gt;nonMalicious</title>
<path fill="none" stroke="#000000" d="M203.38,-143.8314C203.487,-136.131 203.6141,-126.9743 203.733,-118.4166"/>
<polygon fill="#000000" stroke="#000000" points="207.2326,-118.4609 203.8719,-108.4133 200.2333,-118.3637 207.2326,-118.4609"/>
</g>
<!-- general -->
<g id="node4" class="node">
<title>general</title>
<ellipse fill="none" stroke="#000000" cx="36.1277" cy="-18" rx="36.2558" ry="18"/>
<text text-anchor="middle" x="36.1277" y="-13.8" font-family="Times,serif" font-size="14.00" fill="#000000">general</text>
</g>
<!-- malicious&#45;&gt;general -->
<g id="edge3" class="edge">
<title>malicious&#45;&gt;general</title>
<path fill="none" stroke="#000000" d="M71.7503,-72.5708C66.0927,-63.9038 59.1441,-53.2592 52.8908,-43.6796"/>
<polygon fill="#000000" stroke="#000000" points="55.7974,-41.7293 47.4003,-35.2687 49.9357,-45.5557 55.7974,-41.7293"/>
</g>
<!-- targetted -->
<g id="node5" class="node">
<title>targetted</title>
<ellipse fill="none" stroke="#000000" cx="131.1277" cy="-18" rx="40.7728" ry="18"/>
<text text-anchor="middle" x="131.1277" y="-13.8" font-family="Times,serif" font-size="14.00" fill="#000000">targetted</text>
</g>
<!-- malicious&#45;&gt;targetted -->
<g id="edge4" class="edge">
<title>malicious&#45;&gt;targetted</title>
<path fill="none" stroke="#000000" d="M94.7471,-72.5708C100.4827,-63.9675 107.5173,-53.4156 113.867,-43.8911"/>
<polygon fill="#000000" stroke="#000000" points="116.814,-45.7802 119.4489,-35.5182 110.9896,-41.8973 116.814,-45.7802"/>
</g>
<!-- intelBugs -->
<g id="node8" class="node">
<title>intelBugs</title>
<ellipse fill="none" stroke="#000000" cx="326.1277" cy="-90" rx="44.0164" ry="18"/>
<text text-anchor="middle" x="326.1277" y="-85.8" font-family="Times,serif" font-size="14.00" fill="#000000">intelBugs</text>
</g>
<!-- unintentional&#45;&gt;intelBugs -->
<g id="edge7" class="edge">
<title>unintentional&#45;&gt;intelBugs</title>
<path fill="none" stroke="#000000" d="M326.1277,-143.8314C326.1277,-136.131 326.1277,-126.9743 326.1277,-118.4166"/>
<polygon fill="#000000" stroke="#000000" points="329.6278,-118.4132 326.1277,-108.4133 322.6278,-118.4133 329.6278,-118.4132"/>
</g>
</g>
</svg>
