<?xml version="1.0" encoding="UTF-8" standalone="no"?>
<!DOCTYPE svg PUBLIC "-//W3C//DTD SVG 1.1//EN"
 "http://www.w3.org/Graphics/SVG/1.1/DTD/svg11.dtd">
<!-- Generated by graphviz version 2.40.1 (20161225.0304)
 -->
<!-- Title: %3 Pages: 1 -->
<svg width="103pt" height="332pt"
 viewBox="0.00 0.00 102.90 332.00" xmlns="http://www.w3.org/2000/svg" xmlns:xlink="http://www.w3.org/1999/xlink">
<g id="graph0" class="graph" transform="scale(1 1) rotate(0) translate(4 328)">
<title>%3</title>
<polygon fill="#ffffff" stroke="transparent" points="-4,4 -4,-328 98.8995,-328 98.8995,4 -4,4"/>
<!-- list_k1_v1 -->
<g id="node1" class="node">
<title>list_k1_v1</title>
<ellipse fill="none" stroke="#000000" cx="47.4497" cy="-306" rx="47.3995" ry="18"/>
<text text-anchor="middle" x="47.4497" y="-301.8" font-family="Times,serif" font-size="14.00" fill="#000000">list_k1_v1</text>
</g>
<!-- map -->
<g id="node2" class="node">
<title>map</title>
<ellipse fill="none" stroke="#000000" cx="47.4497" cy="-234" rx="27" ry="18"/>
<text text-anchor="middle" x="47.4497" y="-229.8" font-family="Times,serif" font-size="14.00" fill="#000000">map</text>
</g>
<!-- list_k1_v1&#45;&gt;map -->
<g id="edge1" class="edge">
<title>list_k1_v1&#45;&gt;map</title>
<path fill="none" stroke="#000000" d="M47.4497,-287.8314C47.4497,-280.131 47.4497,-270.9743 47.4497,-262.4166"/>
<polygon fill="#000000" stroke="#000000" points="50.9498,-262.4132 47.4497,-252.4133 43.9498,-262.4133 50.9498,-262.4132"/>
</g>
<!-- list_k2_v2 -->
<g id="node3" class="node">
<title>list_k2_v2</title>
<ellipse fill="none" stroke="#000000" cx="47.4497" cy="-162" rx="47.3995" ry="18"/>
<text text-anchor="middle" x="47.4497" y="-157.8" font-family="Times,serif" font-size="14.00" fill="#000000">list_k2_v2</text>
</g>
<!-- map&#45;&gt;list_k2_v2 -->
<g id="edge2" class="edge">
<title>map&#45;&gt;list_k2_v2</title>
<path fill="none" stroke="#000000" d="M47.4497,-215.8314C47.4497,-208.131 47.4497,-198.9743 47.4497,-190.4166"/>
<polygon fill="#000000" stroke="#000000" points="50.9498,-190.4132 47.4497,-180.4133 43.9498,-190.4133 50.9498,-190.4132"/>
</g>
<!-- reduce -->
<g id="node4" class="node">
<title>reduce</title>
<ellipse fill="none" stroke="#000000" cx="47.4497" cy="-90" rx="33.8422" ry="18"/>
<text text-anchor="middle" x="47.4497" y="-85.8" font-family="Times,serif" font-size="14.00" fill="#000000">reduce</text>
</g>
<!-- list_k2_v2&#45;&gt;reduce -->
<g id="edge3" class="edge">
<title>list_k2_v2&#45;&gt;reduce</title>
<path fill="none" stroke="#000000" d="M47.4497,-143.8314C47.4497,-136.131 47.4497,-126.9743 47.4497,-118.4166"/>
<polygon fill="#000000" stroke="#000000" points="50.9498,-118.4132 47.4497,-108.4133 43.9498,-118.4133 50.9498,-118.4132"/>
</g>
<!-- list_k3_v3 -->
<g id="node5" class="node">
<title>list_k3_v3</title>
<ellipse fill="none" stroke="#000000" cx="47.4497" cy="-18" rx="47.3995" ry="18"/>
<text text-anchor="middle" x="47.4497" y="-13.8" font-family="Times,serif" font-size="14.00" fill="#000000">list_k3_v3</text>
</g>
<!-- reduce&#45;&gt;list_k3_v3 -->
<g id="edge4" class="edge">
<title>reduce&#45;&gt;list_k3_v3</title>
<path fill="none" stroke="#000000" d="M47.4497,-71.8314C47.4497,-64.131 47.4497,-54.9743 47.4497,-46.4166"/>
<polygon fill="#000000" stroke="#000000" points="50.9498,-46.4132 47.4497,-36.4133 43.9498,-46.4133 50.9498,-46.4132"/>
</g>
</g>
</svg>
