<?xml version="1.0" encoding="UTF-8" standalone="no"?>
<!DOCTYPE svg PUBLIC "-//W3C//DTD SVG 1.1//EN"
 "http://www.w3.org/Graphics/SVG/1.1/DTD/svg11.dtd">
<!-- Generated by graphviz version 2.40.1 (20161225.0304)
 -->
<!-- Title: %3 Pages: 1 -->
<svg width="256pt" height="116pt"
 viewBox="0.00 0.00 255.51 116.00" xmlns="http://www.w3.org/2000/svg" xmlns:xlink="http://www.w3.org/1999/xlink">
<g id="graph0" class="graph" transform="scale(1 1) rotate(0) translate(4 112)">
<title>%3</title>
<polygon fill="#ffffff" stroke="transparent" points="-4,4 -4,-112 251.5123,-112 251.5123,4 -4,4"/>
<!-- hdfs -->
<g id="node1" class="node">
<title>hdfs</title>
<ellipse fill="none" stroke="#000000" cx="57.2561" cy="-90" rx="27" ry="18"/>
<text text-anchor="middle" x="57.2561" y="-85.8" font-family="Times,serif" font-size="14.00" fill="#000000">hdfs</text>
</g>
<!-- MapReduce1 -->
<g id="node2" class="node">
<title>MapReduce1</title>
<ellipse fill="none" stroke="#000000" cx="57.2561" cy="-18" rx="57.0133" ry="18"/>
<text text-anchor="middle" x="57.2561" y="-13.8" font-family="Times,serif" font-size="14.00" fill="#000000">MapReduce1</text>
</g>
<!-- hdfs&#45;&gt;MapReduce1 -->
<g id="edge1" class="edge">
<title>hdfs&#45;&gt;MapReduce1</title>
<path fill="none" stroke="#000000" d="M51.3404,-72.2022C50.5566,-64.3864 50.3251,-55.0171 50.6459,-46.2836"/>
<polygon fill="#000000" stroke="#000000" points="54.1522,-46.2999 51.3111,-36.0931 47.1671,-45.8439 54.1522,-46.2999"/>
</g>
<!-- MapReduce2 -->
<g id="node3" class="node">
<title>MapReduce2</title>
<ellipse fill="none" stroke="#000000" cx="190.2561" cy="-18" rx="57.0133" ry="18"/>
<text text-anchor="middle" x="190.2561" y="-13.8" font-family="Times,serif" font-size="14.00" fill="#000000">MapReduce2</text>
</g>
<!-- hdfs&#45;&gt;MapReduce2 -->
<g id="edge3" class="edge">
<title>hdfs&#45;&gt;MapReduce2</title>
<path fill="none" stroke="#000000" d="M78.3304,-78.5914C98.2049,-67.8323 128.4487,-51.4597 152.4895,-38.4451"/>
<polygon fill="#000000" stroke="#000000" points="154.2373,-41.4789 161.3651,-33.6403 150.9048,-35.3231 154.2373,-41.4789"/>
</g>
<!-- MapReduce1&#45;&gt;hdfs -->
<g id="edge2" class="edge">
<title>MapReduce1&#45;&gt;hdfs</title>
<path fill="none" stroke="#000000" d="M63.2012,-36.0931C63.9711,-43.9477 64.1887,-53.3282 63.854,-62.0453"/>
<polygon fill="#000000" stroke="#000000" points="60.3499,-61.9901 63.1719,-72.2022 67.3342,-62.4593 60.3499,-61.9901"/>
</g>
</g>
</svg>
