<?xml version="1.0" encoding="UTF-8" standalone="no"?>
<!DOCTYPE svg PUBLIC "-//W3C//DTD SVG 1.1//EN"
 "http://www.w3.org/Graphics/SVG/1.1/DTD/svg11.dtd">
<!-- Generated by graphviz version 2.40.1 (20161225.0304)
 -->
<!-- Title: %3 Pages: 1 -->
<svg width="311pt" height="116pt"
 viewBox="0.00 0.00 311.32 116.00" xmlns="http://www.w3.org/2000/svg" xmlns:xlink="http://www.w3.org/1999/xlink">
<g id="graph0" class="graph" transform="scale(1 1) rotate(0) translate(4 112)">
<title>%3</title>
<polygon fill="#ffffff" stroke="transparent" points="-4,4 -4,-112 307.318,-112 307.318,4 -4,4"/>
<!-- hdfs -->
<g id="node1" class="node">
<title>hdfs</title>
<ellipse fill="none" stroke="#000000" cx="178.318" cy="-90" rx="27" ry="18"/>
<text text-anchor="middle" x="178.318" y="-85.8" font-family="Times,serif" font-size="14.00" fill="#000000">hdfs</text>
</g>
<!-- mapreduce1 -->
<g id="node2" class="node">
<title>mapreduce1</title>
<ellipse fill="none" stroke="#000000" cx="53.318" cy="-18" rx="53.1367" ry="18"/>
<text text-anchor="middle" x="53.318" y="-13.8" font-family="Times,serif" font-size="14.00" fill="#000000">mapreduce1</text>
</g>
<!-- hdfs&#45;&gt;mapreduce1 -->
<g id="edge1" class="edge">
<title>hdfs&#45;&gt;mapreduce1</title>
<path fill="none" stroke="#000000" d="M155.8008,-79.8369C135.9283,-69.4798 107.0161,-53.0925 84.8876,-39.7892"/>
<polygon fill="#000000" stroke="#000000" points="86.5321,-36.693 76.1688,-34.49 82.8964,-42.6748 86.5321,-36.693"/>
</g>
<!-- mapreduce2 -->
<g id="node3" class="node">
<title>mapreduce2</title>
<ellipse fill="none" stroke="#000000" cx="178.318" cy="-18" rx="53.1367" ry="18"/>
<text text-anchor="middle" x="178.318" y="-13.8" font-family="Times,serif" font-size="14.00" fill="#000000">mapreduce2</text>
</g>
<!-- hdfs&#45;&gt;mapreduce2 -->
<g id="edge3" class="edge">
<title>hdfs&#45;&gt;mapreduce2</title>
<path fill="none" stroke="#000000" d="M172.4023,-72.2022C171.6185,-64.3864 171.387,-55.0171 171.7078,-46.2836"/>
<polygon fill="#000000" stroke="#000000" points="175.2141,-46.2999 172.373,-36.0931 168.2289,-45.8439 175.2141,-46.2999"/>
</g>
<!-- etc -->
<g id="node4" class="node">
<title>etc</title>
<ellipse fill="none" stroke="#000000" cx="276.318" cy="-18" rx="27" ry="18"/>
<text text-anchor="middle" x="276.318" y="-13.8" font-family="Times,serif" font-size="14.00" fill="#000000">etc</text>
</g>
<!-- hdfs&#45;&gt;etc -->
<g id="edge5" class="edge">
<title>hdfs&#45;&gt;etc</title>
<path fill="none" stroke="#000000" d="M196.7511,-76.4574C211.6712,-65.4956 232.8867,-49.9088 249.6588,-37.5864"/>
<polygon fill="#000000" stroke="#000000" points="251.9811,-40.2233 257.9676,-31.4819 247.8365,-34.5821 251.9811,-40.2233"/>
</g>
<!-- mapreduce1&#45;&gt;hdfs -->
<g id="edge2" class="edge">
<title>mapreduce1&#45;&gt;hdfs</title>
<path fill="none" stroke="#000000" d="M84.443,-32.7209C105.1627,-43.8429 131.958,-59.1917 151.694,-71.2015"/>
<polygon fill="#000000" stroke="#000000" points="149.869,-74.188 160.2179,-76.4574 153.543,-68.2296 149.869,-74.188"/>
</g>
<!-- mapreduce2&#45;&gt;hdfs -->
<g id="edge4" class="edge">
<title>mapreduce2&#45;&gt;hdfs</title>
<path fill="none" stroke="#000000" d="M184.263,-36.0931C185.033,-43.9477 185.2506,-53.3282 184.9159,-62.0453"/>
<polygon fill="#000000" stroke="#000000" points="181.4118,-61.9901 184.2338,-72.2022 188.3961,-62.4593 181.4118,-61.9901"/>
</g>
</g>
</svg>
