<?xml version="1.0" encoding="UTF-8" standalone="no"?>
<!DOCTYPE svg PUBLIC "-//W3C//DTD SVG 1.1//EN"
 "http://www.w3.org/Graphics/SVG/1.1/DTD/svg11.dtd">
<!-- Generated by graphviz version 2.40.1 (20161225.0304)
 -->
<!-- Title: %3 Pages: 1 -->
<svg width="133pt" height="188pt"
 viewBox="0.00 0.00 133.28 188.00" xmlns="http://www.w3.org/2000/svg" xmlns:xlink="http://www.w3.org/1999/xlink">
<g id="graph0" class="graph" transform="scale(1 1) rotate(0) translate(4 184)">
<title>%3</title>
<polygon fill="#ffffff" stroke="transparent" points="-4,4 -4,-184 129.2816,-184 129.2816,4 -4,4"/>
<!-- reducers -->
<g id="node1" class="node">
<title>reducers</title>
<ellipse fill="none" stroke="#000000" cx="62.6408" cy="-162" rx="40.1144" ry="18"/>
<text text-anchor="middle" x="62.6408" y="-157.8" font-family="Times,serif" font-size="14.00" fill="#000000">reducers</text>
</g>
<!-- record_readers -->
<g id="node2" class="node">
<title>record_readers</title>
<ellipse fill="none" stroke="#000000" cx="62.6408" cy="-90" rx="62.7819" ry="18"/>
<text text-anchor="middle" x="62.6408" y="-85.8" font-family="Times,serif" font-size="14.00" fill="#000000">record_readers</text>
</g>
<!-- reducers&#45;&gt;record_readers -->
<g id="edge1" class="edge">
<title>reducers&#45;&gt;record_readers</title>
<path fill="none" stroke="#000000" d="M62.6408,-143.8314C62.6408,-136.131 62.6408,-126.9743 62.6408,-118.4166"/>
<polygon fill="#000000" stroke="#000000" points="66.1409,-118.4132 62.6408,-108.4133 59.1409,-118.4133 66.1409,-118.4132"/>
</g>
<!-- output_file -->
<g id="node3" class="node">
<title>output_file</title>
<ellipse fill="none" stroke="#000000" cx="62.6408" cy="-18" rx="48.36" ry="18"/>
<text text-anchor="middle" x="62.6408" y="-13.8" font-family="Times,serif" font-size="14.00" fill="#000000">output_file</text>
</g>
<!-- record_readers&#45;&gt;output_file -->
<g id="edge2" class="edge">
<title>record_readers&#45;&gt;output_file</title>
<path fill="none" stroke="#000000" d="M62.6408,-71.8314C62.6408,-64.131 62.6408,-54.9743 62.6408,-46.4166"/>
<polygon fill="#000000" stroke="#000000" points="66.1409,-46.4132 62.6408,-36.4133 59.1409,-46.4133 66.1409,-46.4132"/>
</g>
</g>
</svg>
