<?xml version="1.0" encoding="UTF-8" standalone="no"?>
<!DOCTYPE svg PUBLIC "-//W3C//DTD SVG 1.1//EN"
 "http://www.w3.org/Graphics/SVG/1.1/DTD/svg11.dtd">
<!-- Generated by graphviz version 2.40.1 (20161225.0304)
 -->
<!-- Title: %3 Pages: 1 -->
<svg width="254pt" height="188pt"
 viewBox="0.00 0.00 254.09 188.00" xmlns="http://www.w3.org/2000/svg" xmlns:xlink="http://www.w3.org/1999/xlink">
<g id="graph0" class="graph" transform="scale(1 1) rotate(0) translate(4 184)">
<title>%3</title>
<polygon fill="#ffffff" stroke="transparent" points="-4,4 -4,-184 250.0905,-184 250.0905,4 -4,4"/>
<!-- useful_service -->
<g id="node1" class="node">
<title>useful_service</title>
<ellipse fill="none" stroke="#000000" cx="128.8905" cy="-162" rx="61.3631" ry="18"/>
<text text-anchor="middle" x="128.8905" y="-157.8" font-family="Times,serif" font-size="14.00" fill="#000000">useful_service</text>
</g>
<!-- analyze_behaviour -->
<g id="node2" class="node">
<title>analyze_behaviour</title>
<ellipse fill="none" stroke="#000000" cx="76.8905" cy="-90" rx="76.7812" ry="18"/>
<text text-anchor="middle" x="76.8905" y="-85.8" font-family="Times,serif" font-size="14.00" fill="#000000">analyze_behaviour</text>
</g>
<!-- useful_service&#45;&gt;analyze_behaviour -->
<g id="edge1" class="edge">
<title>useful_service&#45;&gt;analyze_behaviour</title>
<path fill="none" stroke="#000000" d="M116.0366,-144.2022C109.9115,-135.7214 102.4655,-125.4115 95.7186,-116.0696"/>
<polygon fill="#000000" stroke="#000000" points="98.4691,-113.9001 89.7768,-107.8425 92.7944,-117.9986 98.4691,-113.9001"/>
</g>
<!-- transform_insights_to_actions -->
<g id="node3" class="node">
<title>transform_insights_to_actions</title>
<ellipse fill="none" stroke="#000000" cx="128.8905" cy="-18" rx="117.4003" ry="18"/>
<text text-anchor="middle" x="128.8905" y="-13.8" font-family="Times,serif" font-size="14.00" fill="#000000">transform_insights_to_actions</text>
</g>
<!-- analyze_behaviour&#45;&gt;transform_insights_to_actions -->
<g id="edge2" class="edge">
<title>analyze_behaviour&#45;&gt;transform_insights_to_actions</title>
<path fill="none" stroke="#000000" d="M89.7445,-72.2022C95.8235,-63.7851 103.2036,-53.5665 109.9102,-44.2805"/>
<polygon fill="#000000" stroke="#000000" points="112.8057,-46.2492 115.8233,-36.0931 107.131,-42.1507 112.8057,-46.2492"/>
</g>
<!-- transform_insights_to_actions&#45;&gt;useful_service -->
<g id="edge3" class="edge">
<title>transform_insights_to_actions&#45;&gt;useful_service</title>
<path fill="none" stroke="#000000" d="M144.0046,-36.2232C151.2454,-46.1414 159.1429,-59.0142 162.8905,-72 167.327,-87.3726 167.327,-92.6274 162.8905,-108 160.0635,-117.7959 154.875,-127.5275 149.3882,-135.975"/>
<polygon fill="#000000" stroke="#000000" points="146.4651,-134.0484 143.649,-144.2622 152.2198,-138.0338 146.4651,-134.0484"/>
</g>
</g>
</svg>
