<?xml version="1.0" encoding="UTF-8" standalone="no"?>
<!DOCTYPE svg PUBLIC "-//W3C//DTD SVG 1.1//EN"
 "http://www.w3.org/Graphics/SVG/1.1/DTD/svg11.dtd">
<!-- Generated by graphviz version 2.40.1 (20161225.0304)
 -->
<!-- Title: %3 Pages: 1 -->
<svg width="263pt" height="404pt"
 viewBox="0.00 0.00 262.77 404.00" xmlns="http://www.w3.org/2000/svg" xmlns:xlink="http://www.w3.org/1999/xlink">
<g id="graph0" class="graph" transform="scale(1 1) rotate(0) translate(4 400)">
<title>%3</title>
<polygon fill="#ffffff" stroke="transparent" points="-4,4 -4,-400 258.7732,-400 258.7732,4 -4,4"/>
<!-- query -->
<g id="node1" class="node">
<title>query</title>
<ellipse fill="none" stroke="#000000" cx="55.2914" cy="-306" rx="30.4862" ry="18"/>
<text text-anchor="middle" x="55.2914" y="-301.8" font-family="Times,serif" font-size="14.00" fill="#000000">query</text>
</g>
<!-- rep_function -->
<g id="node2" class="node">
<title>rep_function</title>
<ellipse fill="none" stroke="#000000" cx="55.2914" cy="-234" rx="55.0836" ry="18"/>
<text text-anchor="middle" x="55.2914" y="-229.8" font-family="Times,serif" font-size="14.00" fill="#000000">rep_function</text>
</g>
<!-- query&#45;&gt;rep_function -->
<g id="edge1" class="edge">
<title>query&#45;&gt;rep_function</title>
<path fill="none" stroke="#000000" d="M55.2914,-287.8314C55.2914,-280.131 55.2914,-270.9743 55.2914,-262.4166"/>
<polygon fill="#000000" stroke="#000000" points="58.7915,-262.4132 55.2914,-252.4133 51.7915,-262.4133 58.7915,-262.4132"/>
</g>
<!-- query_rep -->
<g id="node3" class="node">
<title>query_rep</title>
<ellipse fill="none" stroke="#000000" cx="55.2914" cy="-162" rx="45.9114" ry="18"/>
<text text-anchor="middle" x="55.2914" y="-157.8" font-family="Times,serif" font-size="14.00" fill="#000000">query_rep</text>
</g>
<!-- rep_function&#45;&gt;query_rep -->
<g id="edge2" class="edge">
<title>rep_function&#45;&gt;query_rep</title>
<path fill="none" stroke="#000000" d="M55.2914,-215.8314C55.2914,-208.131 55.2914,-198.9743 55.2914,-190.4166"/>
<polygon fill="#000000" stroke="#000000" points="58.7915,-190.4132 55.2914,-180.4133 51.7915,-190.4133 58.7915,-190.4132"/>
</g>
<!-- comp_function -->
<g id="node4" class="node">
<title>comp_function</title>
<ellipse fill="none" stroke="#000000" cx="118.2914" cy="-90" rx="63.7942" ry="18"/>
<text text-anchor="middle" x="118.2914" y="-85.8" font-family="Times,serif" font-size="14.00" fill="#000000">comp_function</text>
</g>
<!-- query_rep&#45;&gt;comp_function -->
<g id="edge3" class="edge">
<title>query_rep&#45;&gt;comp_function</title>
<path fill="none" stroke="#000000" d="M70.2215,-144.937C77.9736,-136.0775 87.5973,-125.0789 96.1929,-115.2554"/>
<polygon fill="#000000" stroke="#000000" points="98.8595,-117.523 102.8105,-107.6924 93.5914,-112.9134 98.8595,-117.523"/>
</g>
<!-- hits -->
<g id="node5" class="node">
<title>hits</title>
<ellipse fill="none" stroke="#000000" cx="118.2914" cy="-18" rx="27" ry="18"/>
<text text-anchor="middle" x="118.2914" y="-13.8" font-family="Times,serif" font-size="14.00" fill="#000000">hits</text>
</g>
<!-- comp_function&#45;&gt;hits -->
<g id="edge4" class="edge">
<title>comp_function&#45;&gt;hits</title>
<path fill="none" stroke="#000000" d="M118.2914,-71.8314C118.2914,-64.131 118.2914,-54.9743 118.2914,-46.4166"/>
<polygon fill="#000000" stroke="#000000" points="121.7915,-46.4132 118.2914,-36.4133 114.7915,-46.4133 121.7915,-46.4132"/>
</g>
<!-- documents -->
<g id="node6" class="node">
<title>documents</title>
<ellipse fill="none" stroke="#000000" cx="182.2914" cy="-378" rx="48.3427" ry="18"/>
<text text-anchor="middle" x="182.2914" y="-373.8" font-family="Times,serif" font-size="14.00" fill="#000000">documents</text>
</g>
<!-- rep_function_doc -->
<g id="node7" class="node">
<title>rep_function_doc</title>
<ellipse fill="none" stroke="#000000" cx="182.2914" cy="-306" rx="72.4635" ry="18"/>
<text text-anchor="middle" x="182.2914" y="-301.8" font-family="Times,serif" font-size="14.00" fill="#000000">rep_function_doc</text>
</g>
<!-- documents&#45;&gt;rep_function_doc -->
<g id="edge5" class="edge">
<title>documents&#45;&gt;rep_function_doc</title>
<path fill="none" stroke="#000000" d="M182.2914,-359.8314C182.2914,-352.131 182.2914,-342.9743 182.2914,-334.4166"/>
<polygon fill="#000000" stroke="#000000" points="185.7915,-334.4132 182.2914,-324.4133 178.7915,-334.4133 185.7915,-334.4132"/>
</g>
<!-- doc_rep -->
<g id="node8" class="node">
<title>doc_rep</title>
<ellipse fill="none" stroke="#000000" cx="182.2914" cy="-234" rx="38.6782" ry="18"/>
<text text-anchor="middle" x="182.2914" y="-229.8" font-family="Times,serif" font-size="14.00" fill="#000000">doc_rep</text>
</g>
<!-- rep_function_doc&#45;&gt;doc_rep -->
<g id="edge6" class="edge">
<title>rep_function_doc&#45;&gt;doc_rep</title>
<path fill="none" stroke="#000000" d="M182.2914,-287.8314C182.2914,-280.131 182.2914,-270.9743 182.2914,-262.4166"/>
<polygon fill="#000000" stroke="#000000" points="185.7915,-262.4132 182.2914,-252.4133 178.7915,-262.4133 185.7915,-262.4132"/>
</g>
<!-- inverted_index -->
<g id="node9" class="node">
<title>inverted_index</title>
<ellipse fill="none" stroke="#000000" cx="182.2914" cy="-162" rx="63.301" ry="18"/>
<text text-anchor="middle" x="182.2914" y="-157.8" font-family="Times,serif" font-size="14.00" fill="#000000">inverted_index</text>
</g>
<!-- doc_rep&#45;&gt;inverted_index -->
<g id="edge7" class="edge">
<title>doc_rep&#45;&gt;inverted_index</title>
<path fill="none" stroke="#000000" d="M182.2914,-215.8314C182.2914,-208.131 182.2914,-198.9743 182.2914,-190.4166"/>
<polygon fill="#000000" stroke="#000000" points="185.7915,-190.4132 182.2914,-180.4133 178.7915,-190.4133 185.7915,-190.4132"/>
</g>
<!-- inverted_index&#45;&gt;comp_function -->
<g id="edge8" class="edge">
<title>inverted_index&#45;&gt;comp_function</title>
<path fill="none" stroke="#000000" d="M166.4712,-144.2022C158.7209,-135.4832 149.2524,-124.8311 140.7669,-115.2849"/>
<polygon fill="#000000" stroke="#000000" points="143.1893,-112.7419 133.9297,-107.593 137.9574,-117.3924 143.1893,-112.7419"/>
</g>
</g>
</svg>
