<?xml version="1.0" encoding="UTF-8" standalone="no"?>
<!DOCTYPE svg PUBLIC "-//W3C//DTD SVG 1.1//EN"
 "http://www.w3.org/Graphics/SVG/1.1/DTD/svg11.dtd">
<!-- Generated by graphviz version 2.40.1 (20161225.0304)
 -->
<!-- Title: %3 Pages: 1 -->
<svg width="68pt" height="260pt"
 viewBox="0.00 0.00 68.48 260.00" xmlns="http://www.w3.org/2000/svg" xmlns:xlink="http://www.w3.org/1999/xlink">
<g id="graph0" class="graph" transform="scale(1 1) rotate(0) translate(4 256)">
<title>%3</title>
<polygon fill="#ffffff" stroke="transparent" points="-4,4 -4,-256 64.4842,-256 64.4842,4 -4,4"/>
<!-- graph -->
<g id="node1" class="node">
<title>graph</title>
<ellipse fill="none" stroke="#000000" cx="30.2421" cy="-234" rx="30.4862" ry="18"/>
<text text-anchor="middle" x="30.2421" y="-229.8" font-family="Times,serif" font-size="14.00" fill="#000000">graph</text>
</g>
<!-- e -->
<g id="node2" class="node">
<title>e</title>
<ellipse fill="none" stroke="#000000" cx="30.2421" cy="-162" rx="27" ry="18"/>
<text text-anchor="middle" x="30.2421" y="-157.8" font-family="Times,serif" font-size="14.00" fill="#000000">e</text>
</g>
<!-- graph&#45;&gt;e -->
<g id="edge1" class="edge">
<title>graph&#45;&gt;e</title>
<path fill="none" stroke="#000000" d="M30.2421,-215.8314C30.2421,-208.131 30.2421,-198.9743 30.2421,-190.4166"/>
<polygon fill="#000000" stroke="#000000" points="33.7422,-190.4132 30.2421,-180.4133 26.7422,-190.4133 33.7422,-190.4132"/>
</g>
<!-- e1 -->
<g id="node3" class="node">
<title>e1</title>
<ellipse fill="none" stroke="#000000" cx="30.2421" cy="-90" rx="27" ry="18"/>
<text text-anchor="middle" x="30.2421" y="-85.8" font-family="Times,serif" font-size="14.00" fill="#000000">e1</text>
</g>
<!-- e&#45;&gt;e1 -->
<g id="edge2" class="edge">
<title>e&#45;&gt;e1</title>
<path fill="none" stroke="#000000" d="M30.2421,-143.8314C30.2421,-136.131 30.2421,-126.9743 30.2421,-118.4166"/>
<polygon fill="#000000" stroke="#000000" points="33.7422,-118.4132 30.2421,-108.4133 26.7422,-118.4133 33.7422,-118.4132"/>
</g>
<!-- e2 -->
<g id="node4" class="node">
<title>e2</title>
<ellipse fill="none" stroke="#000000" cx="30.2421" cy="-18" rx="27" ry="18"/>
<text text-anchor="middle" x="30.2421" y="-13.8" font-family="Times,serif" font-size="14.00" fill="#000000">e2</text>
</g>
<!-- e1&#45;&gt;e2 -->
<g id="edge3" class="edge">
<title>e1&#45;&gt;e2</title>
<path fill="none" stroke="#000000" d="M24.3264,-72.2022C23.5219,-64.1807 23.2993,-54.5231 23.6583,-45.5957"/>
<polygon fill="#000000" stroke="#000000" points="27.1518,-45.8099 24.3471,-35.593 20.1683,-45.3289 27.1518,-45.8099"/>
</g>
<!-- e2&#45;&gt;e1 -->
<g id="edge4" class="edge">
<title>e2&#45;&gt;e1</title>
<path fill="none" stroke="#000000" d="M36.1371,-35.593C36.9515,-43.5865 37.1841,-53.2363 36.8349,-62.1759"/>
<polygon fill="#000000" stroke="#000000" points="33.3397,-61.9891 36.1578,-72.2022 40.3238,-62.4608 33.3397,-61.9891"/>
</g>
</g>
</svg>
