<?xml version="1.0" encoding="UTF-8" standalone="no"?>
<!DOCTYPE svg PUBLIC "-//W3C//DTD SVG 1.1//EN"
 "http://www.w3.org/Graphics/SVG/1.1/DTD/svg11.dtd">
<!-- Generated by graphviz version 2.40.1 (20161225.0304)
 -->
<!-- Title: %3 Pages: 1 -->
<svg width="113pt" height="188pt"
 viewBox="0.00 0.00 113.24 188.00" xmlns="http://www.w3.org/2000/svg" xmlns:xlink="http://www.w3.org/1999/xlink">
<g id="graph0" class="graph" transform="scale(1 1) rotate(0) translate(4 184)">
<title>%3</title>
<polygon fill="#ffffff" stroke="transparent" points="-4,4 -4,-184 109.2399,-184 109.2399,4 -4,4"/>
<!-- hdfs -->
<g id="node1" class="node">
<title>hdfs</title>
<ellipse fill="none" stroke="#000000" cx="68.6243" cy="-162" rx="27" ry="18"/>
<text text-anchor="middle" x="68.6243" y="-157.8" font-family="Times,serif" font-size="14.00" fill="#000000">hdfs</text>
</g>
<!-- mapper -->
<g id="node2" class="node">
<title>mapper</title>
<ellipse fill="none" stroke="#000000" cx="36.6243" cy="-90" rx="36.7489" ry="18"/>
<text text-anchor="middle" x="36.6243" y="-85.8" font-family="Times,serif" font-size="14.00" fill="#000000">mapper</text>
</g>
<!-- hdfs&#45;&gt;mapper -->
<g id="edge1" class="edge">
<title>hdfs&#45;&gt;mapper</title>
<path fill="none" stroke="#000000" d="M60.878,-144.5708C57.1988,-136.2927 52.7178,-126.2104 48.6132,-116.9752"/>
<polygon fill="#000000" stroke="#000000" points="51.7813,-115.4855 44.5215,-107.7689 45.3846,-118.3285 51.7813,-115.4855"/>
</g>
<!-- reducer -->
<g id="node3" class="node">
<title>reducer</title>
<ellipse fill="none" stroke="#000000" cx="68.6243" cy="-18" rx="36.7316" ry="18"/>
<text text-anchor="middle" x="68.6243" y="-13.8" font-family="Times,serif" font-size="14.00" fill="#000000">reducer</text>
</g>
<!-- mapper&#45;&gt;reducer -->
<g id="edge2" class="edge">
<title>mapper&#45;&gt;reducer</title>
<path fill="none" stroke="#000000" d="M44.5344,-72.2022C48.177,-64.0064 52.5788,-54.1024 56.6178,-45.0145"/>
<polygon fill="#000000" stroke="#000000" points="59.942,-46.1527 60.8051,-35.593 53.5454,-43.3096 59.942,-46.1527"/>
</g>
<!-- reducer&#45;&gt;hdfs -->
<g id="edge3" class="edge">
<title>reducer&#45;&gt;hdfs</title>
<path fill="none" stroke="#000000" d="M74.4481,-35.7771C77.5561,-46.2028 81.0561,-59.7028 82.6243,-72 84.6482,-87.8715 84.6482,-92.1285 82.6243,-108 81.5094,-116.7425 79.4181,-126.093 77.1855,-134.5145"/>
<polygon fill="#000000" stroke="#000000" points="73.7933,-133.6483 74.4481,-144.2229 80.5306,-135.548 73.7933,-133.6483"/>
</g>
</g>
</svg>
