<?xml version="1.0" encoding="UTF-8" standalone="no"?>
<!DOCTYPE svg PUBLIC "-//W3C//DTD SVG 1.1//EN"
 "http://www.w3.org/Graphics/SVG/1.1/DTD/svg11.dtd">
<!-- Generated by graphviz version 2.40.1 (20161225.0304)
 -->
<!-- Title: %3 Pages: 1 -->
<svg width="168pt" height="188pt"
 viewBox="0.00 0.00 167.70 188.00" xmlns="http://www.w3.org/2000/svg" xmlns:xlink="http://www.w3.org/1999/xlink">
<g id="graph0" class="graph" transform="scale(1 1) rotate(0) translate(4 184)">
<title>%3</title>
<polygon fill="#ffffff" stroke="transparent" points="-4,4 -4,-184 163.6969,-184 163.6969,4 -4,4"/>
<!-- encryption -->
<g id="node1" class="node">
<title>encryption</title>
<ellipse fill="none" stroke="#000000" cx="79.8484" cy="-162" rx="47.8496" ry="18"/>
<text text-anchor="middle" x="79.8484" y="-157.8" font-family="Times,serif" font-size="14.00" fill="#000000">encryption</text>
</g>
<!-- formatted_plaintext -->
<g id="node2" class="node">
<title>formatted_plaintext</title>
<ellipse fill="none" stroke="#000000" cx="79.8484" cy="-90" rx="79.6972" ry="18"/>
<text text-anchor="middle" x="79.8484" y="-85.8" font-family="Times,serif" font-size="14.00" fill="#000000">formatted_plaintext</text>
</g>
<!-- encryption&#45;&gt;formatted_plaintext -->
<g id="edge1" class="edge">
<title>encryption&#45;&gt;formatted_plaintext</title>
<path fill="none" stroke="#000000" d="M79.8484,-143.8314C79.8484,-136.131 79.8484,-126.9743 79.8484,-118.4166"/>
<polygon fill="#000000" stroke="#000000" points="83.3485,-118.4132 79.8484,-108.4133 76.3485,-118.4133 83.3485,-118.4132"/>
</g>
<!-- ciphertext -->
<g id="node3" class="node">
<title>ciphertext</title>
<ellipse fill="none" stroke="#000000" cx="79.8484" cy="-18" rx="45.4269" ry="18"/>
<text text-anchor="middle" x="79.8484" y="-13.8" font-family="Times,serif" font-size="14.00" fill="#000000">ciphertext</text>
</g>
<!-- formatted_plaintext&#45;&gt;ciphertext -->
<g id="edge2" class="edge">
<title>formatted_plaintext&#45;&gt;ciphertext</title>
<path fill="none" stroke="#000000" d="M79.8484,-71.8314C79.8484,-64.131 79.8484,-54.9743 79.8484,-46.4166"/>
<polygon fill="#000000" stroke="#000000" points="83.3485,-46.4132 79.8484,-36.4133 76.3485,-46.4133 83.3485,-46.4132"/>
</g>
</g>
</svg>
