<?xml version="1.0" encoding="UTF-8" standalone="no"?>
<!DOCTYPE svg PUBLIC "-//W3C//DTD SVG 1.1//EN"
 "http://www.w3.org/Graphics/SVG/1.1/DTD/svg11.dtd">
<!-- Generated by graphviz version 2.40.1 (20161225.0304)
 -->
<!-- Title: %3 Pages: 1 -->
<svg width="242pt" height="332pt"
 viewBox="0.00 0.00 242.12 332.00" xmlns="http://www.w3.org/2000/svg" xmlns:xlink="http://www.w3.org/1999/xlink">
<g id="graph0" class="graph" transform="scale(1 1) rotate(0) translate(4 328)">
<title>%3</title>
<polygon fill="#ffffff" stroke="transparent" points="-4,4 -4,-328 238.1172,-328 238.1172,4 -4,4"/>
<!-- decrypt -->
<g id="node1" class="node">
<title>decrypt</title>
<ellipse fill="none" stroke="#000000" cx="92.7412" cy="-306" rx="36.7489" ry="18"/>
<text text-anchor="middle" x="92.7412" y="-301.8" font-family="Times,serif" font-size="14.00" fill="#000000">decrypt</text>
</g>
<!-- formatted_plaintext -->
<g id="node2" class="node">
<title>formatted_plaintext</title>
<ellipse fill="none" stroke="#000000" cx="92.7412" cy="-234" rx="79.6972" ry="18"/>
<text text-anchor="middle" x="92.7412" y="-229.8" font-family="Times,serif" font-size="14.00" fill="#000000">formatted_plaintext</text>
</g>
<!-- decrypt&#45;&gt;formatted_plaintext -->
<g id="edge1" class="edge">
<title>decrypt&#45;&gt;formatted_plaintext</title>
<path fill="none" stroke="#000000" d="M92.7412,-287.8314C92.7412,-280.131 92.7412,-270.9743 92.7412,-262.4166"/>
<polygon fill="#000000" stroke="#000000" points="96.2413,-262.4132 92.7412,-252.4133 89.2413,-262.4133 96.2413,-262.4132"/>
</g>
<!-- check_formatting -->
<g id="node3" class="node">
<title>check_formatting</title>
<ellipse fill="none" stroke="#000000" cx="92.7412" cy="-162" rx="72.4549" ry="18"/>
<text text-anchor="middle" x="92.7412" y="-157.8" font-family="Times,serif" font-size="14.00" fill="#000000">check_formatting</text>
</g>
<!-- formatted_plaintext&#45;&gt;check_formatting -->
<g id="edge2" class="edge">
<title>formatted_plaintext&#45;&gt;check_formatting</title>
<path fill="none" stroke="#000000" d="M92.7412,-215.8314C92.7412,-208.131 92.7412,-198.9743 92.7412,-190.4166"/>
<polygon fill="#000000" stroke="#000000" points="96.2413,-190.4132 92.7412,-180.4133 89.2413,-190.4133 96.2413,-190.4132"/>
</g>
<!-- reject -->
<g id="node4" class="node">
<title>reject</title>
<ellipse fill="none" stroke="#000000" cx="29.7412" cy="-90" rx="29.9844" ry="18"/>
<text text-anchor="middle" x="29.7412" y="-85.8" font-family="Times,serif" font-size="14.00" fill="#000000">reject</text>
</g>
<!-- check_formatting&#45;&gt;reject -->
<g id="edge3" class="edge">
<title>check_formatting&#45;&gt;reject</title>
<path fill="none" stroke="#000000" d="M77.1682,-144.2022C69.1177,-135.0017 59.1838,-123.6487 50.491,-113.7141"/>
<polygon fill="#000000" stroke="#000000" points="53.0644,-111.34 43.8453,-106.119 47.7964,-115.9495 53.0644,-111.34"/>
</g>
<!-- remove_formatting -->
<g id="node5" class="node">
<title>remove_formatting</title>
<ellipse fill="none" stroke="#000000" cx="155.7412" cy="-90" rx="78.2521" ry="18"/>
<text text-anchor="middle" x="155.7412" y="-85.8" font-family="Times,serif" font-size="14.00" fill="#000000">remove_formatting</text>
</g>
<!-- check_formatting&#45;&gt;remove_formatting -->
<g id="edge4" class="edge">
<title>check_formatting&#45;&gt;remove_formatting</title>
<path fill="none" stroke="#000000" d="M108.3143,-144.2022C115.8865,-135.5483 125.125,-124.99 133.4297,-115.4988"/>
<polygon fill="#000000" stroke="#000000" points="136.1779,-117.6731 140.129,-107.8425 130.9099,-113.0636 136.1779,-117.6731"/>
</g>
<!-- plaintext -->
<g id="node6" class="node">
<title>plaintext</title>
<ellipse fill="none" stroke="#000000" cx="155.7412" cy="-18" rx="41.1007" ry="18"/>
<text text-anchor="middle" x="155.7412" y="-13.8" font-family="Times,serif" font-size="14.00" fill="#000000">plaintext</text>
</g>
<!-- remove_formatting&#45;&gt;plaintext -->
<g id="edge5" class="edge">
<title>remove_formatting&#45;&gt;plaintext</title>
<path fill="none" stroke="#000000" d="M155.7412,-71.8314C155.7412,-64.131 155.7412,-54.9743 155.7412,-46.4166"/>
<polygon fill="#000000" stroke="#000000" points="159.2413,-46.4132 155.7412,-36.4133 152.2413,-46.4133 159.2413,-46.4132"/>
</g>
</g>
</svg>
