<?xml version="1.0" encoding="UTF-8" standalone="no"?>
<!DOCTYPE svg PUBLIC "-//W3C//DTD SVG 1.1//EN"
 "http://www.w3.org/Graphics/SVG/1.1/DTD/svg11.dtd">
<!-- Generated by graphviz version 2.40.1 (20161225.0304)
 -->
<!-- Title: %3 Pages: 1 -->
<svg width="188pt" height="260pt"
 viewBox="0.00 0.00 187.63 260.00" xmlns="http://www.w3.org/2000/svg" xmlns:xlink="http://www.w3.org/1999/xlink">
<g id="graph0" class="graph" transform="scale(1 1) rotate(0) translate(4 256)">
<title>%3</title>
<polygon fill="#ffffff" stroke="transparent" points="-4,4 -4,-256 183.6325,-256 183.6325,4 -4,4"/>
<!-- trainingSet -->
<g id="node1" class="node">
<title>trainingSet</title>
<ellipse fill="none" stroke="#000000" cx="52.3465" cy="-234" rx="48.8273" ry="18"/>
<text text-anchor="middle" x="52.3465" y="-229.8" font-family="Times,serif" font-size="14.00" fill="#000000">trainingSet</text>
</g>
<!-- learningAlg -->
<g id="node2" class="node">
<title>learningAlg</title>
<ellipse fill="none" stroke="#000000" cx="52.3465" cy="-162" rx="52.1934" ry="18"/>
<text text-anchor="middle" x="52.3465" y="-157.8" font-family="Times,serif" font-size="14.00" fill="#000000">learningAlg</text>
</g>
<!-- trainingSet&#45;&gt;learningAlg -->
<g id="edge1" class="edge">
<title>trainingSet&#45;&gt;learningAlg</title>
<path fill="none" stroke="#000000" d="M52.3465,-215.8314C52.3465,-208.131 52.3465,-198.9743 52.3465,-190.4166"/>
<polygon fill="#000000" stroke="#000000" points="55.8466,-190.4132 52.3465,-180.4133 48.8466,-190.4133 55.8466,-190.4132"/>
</g>
<!-- hLinHypothesis -->
<g id="node3" class="node">
<title>hLinHypothesis</title>
<ellipse fill="none" stroke="#000000" cx="101.3465" cy="-90" rx="66.7098" ry="18"/>
<text text-anchor="middle" x="101.3465" y="-85.8" font-family="Times,serif" font-size="14.00" fill="#000000">hLinHypothesis</text>
</g>
<!-- learningAlg&#45;&gt;hLinHypothesis -->
<g id="edge2" class="edge">
<title>learningAlg&#45;&gt;hLinHypothesis</title>
<path fill="none" stroke="#000000" d="M64.4588,-144.2022C70.1716,-135.8079 77.1039,-125.6218 83.4098,-116.3558"/>
<polygon fill="#000000" stroke="#000000" points="86.4708,-118.0789 89.2036,-107.8425 80.6838,-114.1405 86.4708,-118.0789"/>
</g>
<!-- predictedOutput -->
<g id="node5" class="node">
<title>predictedOutput</title>
<ellipse fill="none" stroke="#000000" cx="101.3465" cy="-18" rx="67.6442" ry="18"/>
<text text-anchor="middle" x="101.3465" y="-13.8" font-family="Times,serif" font-size="14.00" fill="#000000">predictedOutput</text>
</g>
<!-- hLinHypothesis&#45;&gt;predictedOutput -->
<g id="edge4" class="edge">
<title>hLinHypothesis&#45;&gt;predictedOutput</title>
<path fill="none" stroke="#000000" d="M101.3465,-71.8314C101.3465,-64.131 101.3465,-54.9743 101.3465,-46.4166"/>
<polygon fill="#000000" stroke="#000000" points="104.8466,-46.4132 101.3465,-36.4133 97.8466,-46.4133 104.8466,-46.4132"/>
</g>
<!-- input -->
<g id="node4" class="node">
<title>input</title>
<ellipse fill="none" stroke="#000000" cx="151.3465" cy="-162" rx="28.0736" ry="18"/>
<text text-anchor="middle" x="151.3465" y="-157.8" font-family="Times,serif" font-size="14.00" fill="#000000">input</text>
</g>
<!-- input&#45;&gt;hLinHypothesis -->
<g id="edge3" class="edge">
<title>input&#45;&gt;hLinHypothesis</title>
<path fill="none" stroke="#000000" d="M139.7498,-145.3008C133.7254,-136.6256 126.2267,-125.8275 119.4585,-116.0813"/>
<polygon fill="#000000" stroke="#000000" points="122.333,-114.0844 113.7542,-107.8671 116.5834,-118.0772 122.333,-114.0844"/>
</g>
</g>
</svg>
