<?xml version="1.0" encoding="UTF-8" standalone="no"?>
<!DOCTYPE svg PUBLIC "-//W3C//DTD SVG 1.1//EN"
 "http://www.w3.org/Graphics/SVG/1.1/DTD/svg11.dtd">
<!-- Generated by graphviz version 2.40.1 (20161225.0304)
 -->
<!-- Title: %3 Pages: 1 -->
<svg width="82pt" height="188pt"
 viewBox="0.00 0.00 82.23 188.00" xmlns="http://www.w3.org/2000/svg" xmlns:xlink="http://www.w3.org/1999/xlink">
<g id="graph0" class="graph" transform="scale(1 1) rotate(0) translate(4 184)">
<title>%3</title>
<polygon fill="#ffffff" stroke="transparent" points="-4,4 -4,-184 78.2331,-184 78.2331,4 -4,4"/>
<!-- client -->
<g id="node1" class="node">
<title>client</title>
<ellipse fill="none" stroke="#000000" cx="37.1165" cy="-162" rx="30.0018" ry="18"/>
<text text-anchor="middle" x="37.1165" y="-157.8" font-family="Times,serif" font-size="14.00" fill="#000000">client</text>
</g>
<!-- proxy -->
<g id="node2" class="node">
<title>proxy</title>
<ellipse fill="none" stroke="#000000" cx="37.1165" cy="-90" rx="30.9793" ry="18"/>
<text text-anchor="middle" x="37.1165" y="-85.8" font-family="Times,serif" font-size="14.00" fill="#000000">proxy</text>
</g>
<!-- client&#45;&gt;proxy -->
<g id="edge1" class="edge">
<title>client&#45;&gt;proxy</title>
<path fill="none" stroke="#000000" d="M37.1165,-143.8314C37.1165,-136.131 37.1165,-126.9743 37.1165,-118.4166"/>
<polygon fill="#000000" stroke="#000000" points="40.6166,-118.4132 37.1165,-108.4133 33.6166,-118.4133 40.6166,-118.4132"/>
</g>
<!-- internet -->
<g id="node3" class="node">
<title>internet</title>
<ellipse fill="none" stroke="#000000" cx="37.1165" cy="-18" rx="37.2334" ry="18"/>
<text text-anchor="middle" x="37.1165" y="-13.8" font-family="Times,serif" font-size="14.00" fill="#000000">internet</text>
</g>
<!-- proxy&#45;&gt;internet -->
<g id="edge2" class="edge">
<title>proxy&#45;&gt;internet</title>
<path fill="none" stroke="#000000" d="M37.1165,-71.8314C37.1165,-64.131 37.1165,-54.9743 37.1165,-46.4166"/>
<polygon fill="#000000" stroke="#000000" points="40.6166,-46.4132 37.1165,-36.4133 33.6166,-46.4133 40.6166,-46.4132"/>
</g>
</g>
</svg>
