<?xml version="1.0" encoding="UTF-8" standalone="no"?>
<!DOCTYPE svg PUBLIC "-//W3C//DTD SVG 1.1//EN"
 "http://www.w3.org/Graphics/SVG/1.1/DTD/svg11.dtd">
<!-- Generated by graphviz version 2.40.1 (20161225.0304)
 -->
<!-- Title: %3 Pages: 1 -->
<svg width="152pt" height="332pt"
 viewBox="0.00 0.00 151.97 332.00" xmlns="http://www.w3.org/2000/svg" xmlns:xlink="http://www.w3.org/1999/xlink">
<g id="graph0" class="graph" transform="scale(1 1) rotate(0) translate(4 328)">
<title>%3</title>
<polygon fill="#ffffff" stroke="transparent" points="-4,4 -4,-328 147.9703,-328 147.9703,4 -4,4"/>
<!-- internal_network -->
<g id="node1" class="node">
<title>internal_network</title>
<ellipse fill="none" stroke="#000000" cx="71.9852" cy="-306" rx="70.534" ry="18"/>
<text text-anchor="middle" x="71.9852" y="-301.8" font-family="Times,serif" font-size="14.00" fill="#000000">internal_network</text>
</g>
<!-- internal_firewall -->
<g id="node2" class="node">
<title>internal_firewall</title>
<ellipse fill="none" stroke="#000000" cx="71.9852" cy="-234" rx="68.6046" ry="18"/>
<text text-anchor="middle" x="71.9852" y="-229.8" font-family="Times,serif" font-size="14.00" fill="#000000">internal_firewall</text>
</g>
<!-- internal_network&#45;&gt;internal_firewall -->
<g id="edge1" class="edge">
<title>internal_network&#45;&gt;internal_firewall</title>
<path fill="none" stroke="#000000" d="M71.9852,-287.8314C71.9852,-280.131 71.9852,-270.9743 71.9852,-262.4166"/>
<polygon fill="#000000" stroke="#000000" points="75.4853,-262.4132 71.9852,-252.4133 68.4853,-262.4133 75.4853,-262.4132"/>
</g>
<!-- dmz -->
<g id="node3" class="node">
<title>dmz</title>
<ellipse fill="none" stroke="#000000" cx="44.9852" cy="-162" rx="27" ry="18"/>
<text text-anchor="middle" x="44.9852" y="-157.8" font-family="Times,serif" font-size="14.00" fill="#000000">dmz</text>
</g>
<!-- internal_firewall&#45;&gt;dmz -->
<g id="edge2" class="edge">
<title>internal_firewall&#45;&gt;dmz</title>
<path fill="none" stroke="#000000" d="M65.1719,-215.8314C62.1754,-207.8406 58.5909,-198.2819 55.2794,-189.4514"/>
<polygon fill="#000000" stroke="#000000" points="58.4912,-188.0478 51.7027,-179.9134 51.9368,-190.5057 58.4912,-188.0478"/>
</g>
<!-- external_firewall -->
<g id="node4" class="node">
<title>external_firewall</title>
<ellipse fill="none" stroke="#000000" cx="71.9852" cy="-90" rx="70.0409" ry="18"/>
<text text-anchor="middle" x="71.9852" y="-85.8" font-family="Times,serif" font-size="14.00" fill="#000000">external_firewall</text>
</g>
<!-- internal_firewall&#45;&gt;external_firewall -->
<g id="edge4" class="edge">
<title>internal_firewall&#45;&gt;external_firewall</title>
<path fill="none" stroke="#000000" d="M75.8265,-215.6001C77.8018,-205.2025 79.9974,-191.9346 80.9852,-180 82.3049,-164.0545 82.3049,-159.9455 80.9852,-144 80.2907,-135.6085 78.999,-126.5578 77.6066,-118.3092"/>
<polygon fill="#000000" stroke="#000000" points="81.0396,-117.6235 75.8265,-108.3999 74.1498,-118.8612 81.0396,-117.6235"/>
</g>
<!-- dmz&#45;&gt;external_firewall -->
<g id="edge3" class="edge">
<title>dmz&#45;&gt;external_firewall</title>
<path fill="none" stroke="#000000" d="M51.6593,-144.2022C54.6547,-136.2146 58.2585,-126.6045 61.5944,-117.7087"/>
<polygon fill="#000000" stroke="#000000" points="64.9661,-118.6854 65.2003,-108.0931 58.4118,-116.2275 64.9661,-118.6854"/>
</g>
<!-- external_network -->
<g id="node5" class="node">
<title>external_network</title>
<ellipse fill="none" stroke="#000000" cx="71.9852" cy="-18" rx="71.9704" ry="18"/>
<text text-anchor="middle" x="71.9852" y="-13.8" font-family="Times,serif" font-size="14.00" fill="#000000">external_network</text>
</g>
<!-- external_firewall&#45;&gt;external_network -->
<g id="edge5" class="edge">
<title>external_firewall&#45;&gt;external_network</title>
<path fill="none" stroke="#000000" d="M71.9852,-71.8314C71.9852,-64.131 71.9852,-54.9743 71.9852,-46.4166"/>
<polygon fill="#000000" stroke="#000000" points="75.4853,-46.4132 71.9852,-36.4133 68.4853,-46.4133 75.4853,-46.4132"/>
</g>
</g>
</svg>
