<?xml version="1.0" encoding="UTF-8" standalone="no"?>
<!DOCTYPE svg PUBLIC "-//W3C//DTD SVG 1.1//EN"
 "http://www.w3.org/Graphics/SVG/1.1/DTD/svg11.dtd">
<!-- Generated by graphviz version 2.40.1 (20161225.0304)
 -->
<!-- Title: %3 Pages: 1 -->
<svg width="108pt" height="476pt"
 viewBox="0.00 0.00 108.29 476.00" xmlns="http://www.w3.org/2000/svg" xmlns:xlink="http://www.w3.org/1999/xlink">
<g id="graph0" class="graph" transform="scale(1 1) rotate(0) translate(4 472)">
<title>%3</title>
<polygon fill="#ffffff" stroke="transparent" points="-4,4 -4,-472 104.2899,-472 104.2899,4 -4,4"/>
<!-- writes -->
<g id="node1" class="node">
<title>writes</title>
<ellipse fill="none" stroke="#000000" cx="44.9798" cy="-450" rx="31.9393" ry="18"/>
<text text-anchor="middle" x="44.9798" y="-445.8" font-family="Times,serif" font-size="14.00" fill="#000000">writes</text>
</g>
<!-- memstore -->
<g id="node2" class="node">
<title>memstore</title>
<ellipse fill="none" stroke="#000000" cx="44.9798" cy="-378" rx="44.9596" ry="18"/>
<text text-anchor="middle" x="44.9798" y="-373.8" font-family="Times,serif" font-size="14.00" fill="#000000">memstore</text>
</g>
<!-- writes&#45;&gt;memstore -->
<g id="edge1" class="edge">
<title>writes&#45;&gt;memstore</title>
<path fill="none" stroke="#000000" d="M44.9798,-431.8314C44.9798,-424.131 44.9798,-414.9743 44.9798,-406.4166"/>
<polygon fill="#000000" stroke="#000000" points="48.4799,-406.4132 44.9798,-396.4133 41.4799,-406.4133 48.4799,-406.4132"/>
</g>
<!-- merge -->
<g id="node3" class="node">
<title>merge</title>
<ellipse fill="none" stroke="#000000" cx="44.9798" cy="-90" rx="32.0942" ry="18"/>
<text text-anchor="middle" x="44.9798" y="-85.8" font-family="Times,serif" font-size="14.00" fill="#000000">merge</text>
</g>
<!-- memstore&#45;&gt;merge -->
<g id="edge2" class="edge">
<title>memstore&#45;&gt;merge</title>
<path fill="none" stroke="#000000" d="M41.5648,-359.5804C39.8089,-349.1767 37.8572,-335.9092 36.9798,-324 31.102,-244.2162 31.102,-223.7838 36.9798,-144 37.6065,-135.4935 38.7813,-126.2939 40.0414,-117.9399"/>
<polygon fill="#000000" stroke="#000000" points="43.5195,-118.3546 41.6483,-107.9264 36.608,-117.2455 43.5195,-118.3546"/>
</g>
<!-- sort -->
<g id="node5" class="node">
<title>sort</title>
<ellipse fill="none" stroke="#000000" cx="72.9798" cy="-306" rx="27" ry="18"/>
<text text-anchor="middle" x="72.9798" y="-301.8" font-family="Times,serif" font-size="14.00" fill="#000000">sort</text>
</g>
<!-- memstore&#45;&gt;sort -->
<g id="edge4" class="edge">
<title>memstore&#45;&gt;sort</title>
<path fill="none" stroke="#000000" d="M51.9011,-360.2022C55.0884,-352.0064 58.94,-342.1024 62.4741,-333.0145"/>
<polygon fill="#000000" stroke="#000000" points="65.7755,-334.1817 66.1381,-323.593 59.2515,-331.6445 65.7755,-334.1817"/>
</g>
<!-- reads -->
<g id="node4" class="node">
<title>reads</title>
<ellipse fill="none" stroke="#000000" cx="44.9798" cy="-18" rx="28.5325" ry="18"/>
<text text-anchor="middle" x="44.9798" y="-13.8" font-family="Times,serif" font-size="14.00" fill="#000000">reads</text>
</g>
<!-- merge&#45;&gt;reads -->
<g id="edge3" class="edge">
<title>merge&#45;&gt;reads</title>
<path fill="none" stroke="#000000" d="M44.9798,-71.8314C44.9798,-64.131 44.9798,-54.9743 44.9798,-46.4166"/>
<polygon fill="#000000" stroke="#000000" points="48.4799,-46.4132 44.9798,-36.4133 41.4799,-46.4133 48.4799,-46.4132"/>
</g>
<!-- flush -->
<g id="node6" class="node">
<title>flush</title>
<ellipse fill="none" stroke="#000000" cx="72.9798" cy="-234" rx="27.1216" ry="18"/>
<text text-anchor="middle" x="72.9798" y="-229.8" font-family="Times,serif" font-size="14.00" fill="#000000">flush</text>
</g>
<!-- sort&#45;&gt;flush -->
<g id="edge5" class="edge">
<title>sort&#45;&gt;flush</title>
<path fill="none" stroke="#000000" d="M72.9798,-287.8314C72.9798,-280.131 72.9798,-270.9743 72.9798,-262.4166"/>
<polygon fill="#000000" stroke="#000000" points="76.4799,-262.4132 72.9798,-252.4133 69.4799,-262.4133 76.4799,-262.4132"/>
</g>
<!-- disk -->
<g id="node7" class="node">
<title>disk</title>
<ellipse fill="none" stroke="#000000" cx="72.9798" cy="-162" rx="27" ry="18"/>
<text text-anchor="middle" x="72.9798" y="-157.8" font-family="Times,serif" font-size="14.00" fill="#000000">disk</text>
</g>
<!-- flush&#45;&gt;disk -->
<g id="edge6" class="edge">
<title>flush&#45;&gt;disk</title>
<path fill="none" stroke="#000000" d="M72.9798,-215.8314C72.9798,-208.131 72.9798,-198.9743 72.9798,-190.4166"/>
<polygon fill="#000000" stroke="#000000" points="76.4799,-190.4132 72.9798,-180.4133 69.4799,-190.4133 76.4799,-190.4132"/>
</g>
<!-- disk&#45;&gt;merge -->
<g id="edge7" class="edge">
<title>disk&#45;&gt;merge</title>
<path fill="none" stroke="#000000" d="M66.2018,-144.5708C63.0164,-136.3798 59.1441,-126.4225 55.5837,-117.2671"/>
<polygon fill="#000000" stroke="#000000" points="58.7764,-115.8203 51.8899,-107.7689 52.2524,-118.3575 58.7764,-115.8203"/>
</g>
</g>
</svg>
