<?xml version="1.0" encoding="UTF-8" standalone="no"?>
<!DOCTYPE svg PUBLIC "-//W3C//DTD SVG 1.1//EN"
 "http://www.w3.org/Graphics/SVG/1.1/DTD/svg11.dtd">
<!-- Generated by graphviz version 2.40.1 (20161225.0304)
 -->
<!-- Title: %3 Pages: 1 -->
<svg width="85pt" height="188pt"
 viewBox="0.00 0.00 85.18 188.00" xmlns="http://www.w3.org/2000/svg" xmlns:xlink="http://www.w3.org/1999/xlink">
<g id="graph0" class="graph" transform="scale(1 1) rotate(0) translate(4 184)">
<title>%3</title>
<polygon fill="#ffffff" stroke="transparent" points="-4,4 -4,-184 81.178,-184 81.178,4 -4,4"/>
<!-- Alice -->
<g id="node1" class="node">
<title>Alice</title>
<ellipse fill="none" stroke="#000000" cx="38.589" cy="-162" rx="29.0172" ry="18"/>
<text text-anchor="middle" x="38.589" y="-157.8" font-family="Times,serif" font-size="14.00" fill="#000000">Alice</text>
</g>
<!-- Intruder -->
<g id="node2" class="node">
<title>Intruder</title>
<ellipse fill="none" stroke="#000000" cx="38.589" cy="-90" rx="38.6782" ry="18"/>
<text text-anchor="middle" x="38.589" y="-85.8" font-family="Times,serif" font-size="14.00" fill="#000000">Intruder</text>
</g>
<!-- Alice&#45;&gt;Intruder -->
<g id="edge1" class="edge">
<title>Alice&#45;&gt;Intruder</title>
<path fill="none" stroke="#000000" d="M32.6733,-144.2022C31.8835,-136.3271 31.6545,-126.875 31.9861,-118.0852"/>
<polygon fill="#000000" stroke="#000000" points="35.4959,-118.0532 32.6688,-107.8425 28.5114,-117.5876 35.4959,-118.0532"/>
</g>
<!-- Intruder&#45;&gt;Alice -->
<g id="edge2" class="edge">
<title>Intruder&#45;&gt;Alice</title>
<path fill="none" stroke="#000000" d="M44.5092,-107.8425C45.2968,-115.7236 45.5238,-125.1774 45.19,-133.9647"/>
<polygon fill="#000000" stroke="#000000" points="41.6805,-133.9908 44.5047,-144.2022 48.6649,-134.4583 41.6805,-133.9908"/>
</g>
<!-- Bob -->
<g id="node3" class="node">
<title>Bob</title>
<ellipse fill="none" stroke="#000000" cx="38.589" cy="-18" rx="27" ry="18"/>
<text text-anchor="middle" x="38.589" y="-13.8" font-family="Times,serif" font-size="14.00" fill="#000000">Bob</text>
</g>
<!-- Intruder&#45;&gt;Bob -->
<g id="edge4" class="edge">
<title>Intruder&#45;&gt;Bob</title>
<path fill="none" stroke="#000000" d="M32.6733,-72.2022C31.8688,-64.1807 31.6461,-54.5231 32.0052,-45.5957"/>
<polygon fill="#000000" stroke="#000000" points="35.4987,-45.8099 32.694,-35.593 28.5152,-45.3289 35.4987,-45.8099"/>
</g>
<!-- Bob&#45;&gt;Intruder -->
<g id="edge3" class="edge">
<title>Bob&#45;&gt;Intruder</title>
<path fill="none" stroke="#000000" d="M44.484,-35.593C45.2984,-43.5865 45.531,-53.2363 45.1818,-62.1759"/>
<polygon fill="#000000" stroke="#000000" points="41.6866,-61.9891 44.5047,-72.2022 48.6707,-62.4608 41.6866,-61.9891"/>
</g>
</g>
</svg>
